<svg id="Слой_1" data-name="Слой 1" xmlns="http://www.w3.org/2000/svg" xmlns:xlink="http://www.w3.org/1999/xlink" viewBox="0 0 173.31 356.76"><defs><style>.cls-1{fill:url(#Безымянный_градиент_34);}.cls-2{fill:url(#Безымянный_градиент_34-2);}.cls-3{fill:#fff;opacity:0.46;}</style><linearGradient id="Безымянный_градиент_34" x1="340.49" y1="548.61" x2="399.81" y2="548.61" gradientUnits="userSpaceOnUse"><stop offset="0" stop-color="#7a0090"/><stop offset="1" stop-color="#de1a6a"/></linearGradient><linearGradient id="Безымянный_градиент_34-2" x1="345.86" y1="375.46" x2="511.87" y2="375.46" xlink:href="#Безымянный_градиент_34"/></defs><title>шарик</title><path class="cls-1" d="M395.3,497.21A33.26,33.26,0,0,1,377.17,533c-11.51,5.51-24.26,4.9-32.41,15.89-14.12,19-2,41.66,15.1,54,3,2.14,5.82-2.67,2.9-4.78-11.9-8.6-21.61-22.44-17.48-37.38,4.63-16.77,20.08-16.31,33.63-22.45a38.81,38.81,0,0,0,21.92-42.6c-.66-3.5-6.2-2-5.53,1.48Z" transform="translate(-338.57 -246.71)"/><path class="cls-2" d="M452.31,247.76c-44-8.42-90.1,34.86-103,96.69C337,403,358.89,457.11,398.55,469.88c-2.74,3-7.08,5.89-15.68,7.15-13.09,1.91-8.76,11.56,2.72,13.41,7.31,1.17,3.16,9.74,13.06,13.18s11.43-9.36,17.55-5.8c10.6,6.17,22.36,2.57,10.24-9.3-8.12-7.94-11.27-10.75-11.11-15.84,40.79.81,81.17-40.52,93.14-97.71C521.42,313.14,496.27,256.19,452.31,247.76Z" transform="translate(-338.57 -246.71)"/><ellipse class="cls-3" cx="140.74" cy="66.26" rx="17.22" ry="22.4"/><path class="cls-3" d="M476.22,341.93c-10.76-.69-18.89-11.84-19.1-25.51-.15,1-.27,2-.34,3-1,15,7.49,27.77,19,28.51s21.73-10.82,22.76-25.83c.07-1,.1-2,.08-3C496.56,332.61,487,342.62,476.22,341.93Z" transform="translate(-338.57 -246.71)"/></svg>