<svg id="Слой_1" data-name="Слой 1" xmlns="http://www.w3.org/2000/svg" xmlns:xlink="http://www.w3.org/1999/xlink" viewBox="0 0 334.36 197.46"><defs><style>.cls-1{fill:url(#Безымянный_градиент_34);}.cls-2{fill:url(#Безымянный_градиент_34-2);}</style><linearGradient id="Безымянный_градиент_34" x1="288.25" y1="477.42" x2="563.7" y2="477.42" gradientUnits="userSpaceOnUse"><stop offset="0" stop-color="#7a0090"/><stop offset="1" stop-color="#de1a6a"/></linearGradient><linearGradient id="Безымянный_градиент_34-2" x1="258.23" y1="400.12" x2="592.59" y2="400.12" xlink:href="#Безымянный_градиент_34"/></defs><title>бантик</title><path class="cls-1" d="M543.6,497c-56.5,0-98.24-52.34-98.24-52.34l-40.19.27S364.84,497,308.34,497c-11.13,0-16.91-3.47-19.07-9-3.21,12.8.61,22.3,19.07,22.3,56.5,0,96.83-52.07,96.83-52.07l40.19-.27s41.74,52.34,98.24,52.34c18.46,0,22.29-9.51,19.07-22.31C560.52,493.48,554.73,497,543.6,497Z" transform="translate(-258.23 -312.79)"/><path class="cls-2" d="M568.19,312.79c-68.58,0-122.54,64-122.54,64s-3.38-8.68-20.24-8.68-20.24,8.68-20.24,8.68-54-64-122.55-64,29.23,110.66,29.23,110.66l.29,0c-19.33,26.35-40.53,64-3.8,64,56.5,0,96.83-52.08,96.83-52.08l40.19-.27s41.74,52.35,98.24,52.35c37,0,15.25-38.15-4.19-64.52C546.36,415,634.1,312.79,568.19,312.79Zm-240,155.15c-28.18,0,2.69-49.1,2.69-49.1S255.81,334,308.42,334c49.09,0,88.41,42.75,93.45,48.46,0,.1,0,.2,0,.3-10-10.09-36.76-33.7-68.94-33.7-40.93,0,17.45,66,17.45,66h.17c-11.54,15.72-24.19,38.19-2.27,38.19,25.55,0,45.55-17.85,53.74-26.49.07.47.16.94.26,1.4C400.15,430.86,369.91,467.94,328.15,467.94Zm97.17-47.66c-11.4,0-20.64-8.92-20.64-19.92s9.24-19.92,20.64-19.92S446,389.36,446,400.36,436.72,420.28,425.32,420.28Zm97.07,47.66c-43.34,0-75.36-40.15-75.36-40.15h-.52a17.58,17.58,0,0,0,.32-2.39c7.56,8.08,28.8,27.85,55.62,27.85,22.07,0,9.1-22.77-2.5-38.51C504.1,410,556.46,349,517.13,349c-33.94,0-61.86,26.25-70.41,35.22a17,17,0,0,0,.14-1.88,6.25,6.25,0,0,1,.39.7s41.39-49.1,94-49.1c50.56,0-16.75,78.38-22.08,84.5C534.08,438.68,550.75,467.94,522.39,467.94Z" transform="translate(-258.23 -312.79)"/></svg>