<svg id="Слой_1" data-name="Слой 1" xmlns="http://www.w3.org/2000/svg" xmlns:xlink="http://www.w3.org/1999/xlink" viewBox="0 0 168 113.69"><defs><style>.cls-1{fill:url(#Безымянный_градиент_34);}.cls-2{fill:url(#Безымянный_градиент_34-2);}.cls-3{fill:url(#Безымянный_градиент_34-3);}</style><linearGradient id="Безымянный_градиент_34" x1="72.74" y1="84.03" x2="234.73" y2="123.95" gradientUnits="userSpaceOnUse"><stop offset="0" stop-color="#7a0090"/><stop offset="1" stop-color="#de1a6a"/></linearGradient><linearGradient id="Безымянный_градиент_34-2" x1="68.97" y1="119.36" x2="241.98" y2="162" xlink:href="#Безымянный_градиент_34"/><linearGradient id="Безымянный_градиент_34-3" x1="3.77" y1="86.52" x2="164.23" y2="126.06" xlink:href="#Безымянный_градиент_34"/></defs><title>корона</title><path class="cls-1" d="M229,87.65l-24.65,27.92a5.26,5.26,0,0,1-7.82.39l-37.7-36a5.25,5.25,0,0,0-7.55.09l-35.85,35.83a5.26,5.26,0,0,1-7.81-.17L80.91,87C77.1,82.88,71,86.07,71,92.14v13.93c0-6.08,6.1-9.26,9.91-5.17l26.69,28.73a5.27,5.27,0,0,0,7.81.17L133,112.19a5.5,5.5,0,0,1,1-1.45l17.13-17.13a5.47,5.47,0,0,1,7.74,0l8.54,8.54,29,27.74a5.27,5.27,0,0,0,7.82-.39L229,101.58c3.77-4.26,10-1.11,10,5V92.7C239,86.54,232.75,83.39,229,87.65Z" transform="translate(-71 -78.39)"/><path class="cls-2" d="M229,107.67l-24.65,27.92a5.26,5.26,0,0,1-7.82.39l-37.7-36a5.25,5.25,0,0,0-7.55.09l-35.85,35.83a5.26,5.26,0,0,1-7.81-.17L80.91,107c-3.81-4.09-9.91-.9-9.91,5.17V174.1a2.91,2.91,0,0,1,2.91-2.91H236.09A2.91,2.91,0,0,1,239,174.1V112.72C239,106.56,232.75,103.41,229,107.67ZM176.06,138.5l-17.13,17.13a5.47,5.47,0,0,1-7.74,0L134.06,138.5a5.47,5.47,0,0,1,0-7.74l17.13-17.13a5.47,5.47,0,0,1,7.74,0l17.13,17.13A5.47,5.47,0,0,1,176.06,138.5Z" transform="translate(-71 -78.39)"/><rect class="cls-3" y="98.89" width="168" height="14.8" rx="3.34"/></svg>