<svg id="Слой_1" data-name="Слой 1" xmlns="http://www.w3.org/2000/svg" xmlns:xlink="http://www.w3.org/1999/xlink" viewBox="0 0 227.35 351.17"><defs><style>.cls-1{fill:none;}.cls-2{fill:url(#Безымянный_градиент_34);}.cls-3{fill:url(#Безымянный_градиент_34-2);}.cls-4{fill:url(#Безымянный_градиент_34-3);}.cls-5{fill:url(#Безымянный_градиент_34-4);}.cls-6{fill:url(#Безымянный_градиент_34-5);}.cls-7{fill:url(#Безымянный_градиент_34-6);}.cls-8{fill:url(#Безымянный_градиент_34-7);}.cls-9{fill:url(#Безымянный_градиент_34-8);}.cls-10{fill:url(#Безымянный_градиент_34-9);}.cls-11{fill:url(#Безымянный_градиент_34-10);}.cls-12{fill:url(#Безымянный_градиент_34-11);}.cls-13{fill:url(#Безымянный_градиент_34-12);}.cls-14{fill:url(#Безымянный_градиент_34-13);}.cls-15{fill:url(#Безымянный_градиент_34-14);}.cls-16{fill:url(#Безымянный_градиент_34-15);}.cls-17{fill:url(#Безымянный_градиент_34-16);}.cls-18{fill:url(#Безымянный_градиент_34-17);}.cls-19{fill:url(#Безымянный_градиент_34-18);}.cls-20{fill:url(#Безымянный_градиент_34-19);}.cls-21{fill:url(#Безымянный_градиент_34-20);}.cls-22{fill:url(#Безымянный_градиент_34-21);}</style><linearGradient id="Безымянный_градиент_34" x1="248" y1="342.38" x2="318.36" y2="342.38" gradientUnits="userSpaceOnUse"><stop offset="0" stop-color="#7a0090"/><stop offset="1" stop-color="#de1a6a"/></linearGradient><linearGradient id="Безымянный_градиент_34-2" x1="262.2" y1="341.01" x2="304.55" y2="341.01" xlink:href="#Безымянный_градиент_34"/><linearGradient id="Безымянный_градиент_34-3" x1="274.04" y1="341.14" x2="292.98" y2="341.14" xlink:href="#Безымянный_градиент_34"/><linearGradient id="Безымянный_градиент_34-4" x1="312.37" y1="241.39" x2="368.64" y2="241.39" xlink:href="#Безымянный_градиент_34"/><linearGradient id="Безымянный_градиент_34-5" x1="323.73" y1="240.29" x2="357.59" y2="240.29" xlink:href="#Безымянный_градиент_34"/><linearGradient id="Безымянный_градиент_34-6" x1="333.19" y1="240.4" x2="348.34" y2="240.4" xlink:href="#Безымянный_градиент_34"/><linearGradient id="Безымянный_градиент_34-7" x1="398.07" y1="262.26" x2="454.35" y2="262.26" xlink:href="#Безымянный_градиент_34"/><linearGradient id="Безымянный_градиент_34-8" x1="409.43" y1="261.15" x2="443.3" y2="261.15" xlink:href="#Безымянный_градиент_34"/><linearGradient id="Безымянный_градиент_34-9" x1="418.9" y1="261.26" x2="434.04" y2="261.26" xlink:href="#Безымянный_градиент_34"/><linearGradient id="Безымянный_градиент_34-10" x1="339.65" y1="324.06" x2="396.52" y2="324.06" xlink:href="#Безымянный_градиент_34"/><linearGradient id="Безымянный_градиент_34-11" x1="351.13" y1="322.95" x2="385.36" y2="322.95" xlink:href="#Безымянный_градиент_34"/><linearGradient id="Безымянный_градиент_34-12" x1="360.7" y1="323.06" x2="376.01" y2="323.06" xlink:href="#Безымянный_градиент_34"/><linearGradient id="Безымянный_градиент_34-13" x1="11.95" y1="52.56" x2="27.78" y2="52.56" xlink:href="#Безымянный_градиент_34"/><linearGradient id="Безымянный_градиент_34-14" x1="130.12" y1="19.81" x2="145.96" y2="19.81" xlink:href="#Безымянный_градиент_34"/><linearGradient id="Безымянный_градиент_34-15" x1="118.81" y1="64.69" x2="134.64" y2="64.69" xlink:href="#Безымянный_градиент_34"/><linearGradient id="Безымянный_градиент_34-16" x1="157.76" y1="107.34" x2="191.14" y2="107.34" xlink:href="#Безымянный_градиент_34"/><linearGradient id="Безымянный_градиент_34-17" x1="47.14" y1="81.79" x2="80.52" y2="81.79" xlink:href="#Безымянный_градиент_34"/><linearGradient id="Безымянный_градиент_34-18" x1="303.19" y1="467" x2="475.35" y2="467" xlink:href="#Безымянный_градиент_34"/><linearGradient id="Безымянный_градиент_34-19" x1="317.48" y1="374.3" x2="426.14" y2="374.3" xlink:href="#Безымянный_градиент_34"/><linearGradient id="Безымянный_градиент_34-20" x1="419.81" y1="351.28" x2="467.73" y2="351.28" xlink:href="#Безымянный_градиент_34"/><linearGradient id="Безымянный_градиент_34-21" x1="286.27" y1="401.04" x2="327.41" y2="401.04" xlink:href="#Безымянный_градиент_34"/></defs><title>букет</title><circle class="cls-1" cx="283.35" cy="341.3" r="7.4" transform="matrix(0.97, -0.23, 0.23, 0.97, -318.83, -139.03)"/><path class="cls-1" d="M283,324.82a16.54,16.54,0,1,0,16.54,16.54A16.54,16.54,0,0,0,283,324.82Zm.49,25.79a9.47,9.47,0,1,1,9.47-9.47A9.47,9.47,0,0,1,283.51,350.61Z" transform="translate(-248 -213.26)"/><path class="cls-1" d="M282.59,315.49A27.49,27.49,0,1,0,310.08,343,27.48,27.48,0,0,0,282.59,315.49Zm.78,46.69A21.18,21.18,0,1,1,304.55,341,21.17,21.17,0,0,1,283.37,362.18Z" transform="translate(-248 -213.26)"/><path class="cls-2" d="M283.18,307.2a35.18,35.18,0,1,0,35.18,35.18A35.18,35.18,0,0,0,283.18,307.2Zm-.59,63.26A27.49,27.49,0,1,1,310.08,343,27.49,27.49,0,0,1,282.59,370.46Z" transform="translate(-248 -213.26)"/><path class="cls-3" d="M283.37,319.83A21.18,21.18,0,1,0,304.55,341,21.17,21.17,0,0,0,283.37,319.83ZM283,357.9a16.54,16.54,0,1,1,16.54-16.54A16.53,16.53,0,0,1,283,357.9Z" transform="translate(-248 -213.26)"/><path class="cls-4" d="M283.51,331.67a9.47,9.47,0,1,0,9.47,9.47A9.47,9.47,0,0,0,283.51,331.67Zm-.16,17a7.4,7.4,0,1,1,7.4-7.4A7.4,7.4,0,0,1,283.35,348.7Z" transform="translate(-248 -213.26)"/><circle class="cls-1" cx="340.64" cy="240.53" r="5.92" transform="translate(-294.15 -128.56) rotate(-13.28)"/><path class="cls-1" d="M340.37,227.35a13.23,13.23,0,1,0,13.23,13.23A13.22,13.22,0,0,0,340.37,227.35Zm.4,20.62a7.57,7.57,0,1,1,7.57-7.57A7.57,7.57,0,0,1,340.77,248Z" transform="translate(-248 -213.26)"/><path class="cls-1" d="M340,219.88a22,22,0,1,0,22,22A22,22,0,0,0,340,219.88Zm.63,37.35a16.94,16.94,0,1,1,16.93-16.94A16.94,16.94,0,0,1,340.66,257.23Z" transform="translate(-248 -213.26)"/><path class="cls-5" d="M340.51,213.26a28.14,28.14,0,1,0,28.13,28.13A28.13,28.13,0,0,0,340.51,213.26ZM340,263.85a22,22,0,1,1,22-22A22,22,0,0,1,340,263.85Z" transform="translate(-248 -213.26)"/><path class="cls-6" d="M340.66,223.36a16.94,16.94,0,1,0,16.93,16.93A16.93,16.93,0,0,0,340.66,223.36Zm-.29,30.45a13.23,13.23,0,1,1,13.23-13.23A13.23,13.23,0,0,1,340.37,253.81Z" transform="translate(-248 -213.26)"/><path class="cls-7" d="M340.77,232.83a7.57,7.57,0,1,0,7.57,7.57A7.57,7.57,0,0,0,340.77,232.83Zm-.13,13.61a5.92,5.92,0,1,1,5.91-5.91A5.92,5.92,0,0,1,340.64,246.44Z" transform="translate(-248 -213.26)"/><circle class="cls-1" cx="426.34" cy="261.39" r="5.92" transform="translate(-296.65 -108.31) rotate(-13.28)"/><path class="cls-1" d="M426.08,248.21a13.23,13.23,0,1,0,13.23,13.23A13.23,13.23,0,0,0,426.08,248.21Zm.39,20.62a7.57,7.57,0,1,1,7.57-7.57A7.57,7.57,0,0,1,426.47,268.83Z" transform="translate(-248 -213.26)"/><path class="cls-1" d="M425.74,240.74a22,22,0,1,0,22,22A22,22,0,0,0,425.74,240.74Zm.63,37.35a16.94,16.94,0,1,1,16.93-16.94A16.93,16.93,0,0,1,426.37,278.09Z" transform="translate(-248 -213.26)"/><path class="cls-8" d="M426.21,234.12a28.14,28.14,0,1,0,28.14,28.14A28.14,28.14,0,0,0,426.21,234.12Zm-.47,50.59a22,22,0,1,1,22-22A22,22,0,0,1,425.74,284.71Z" transform="translate(-248 -213.26)"/><path class="cls-9" d="M426.37,244.22a16.94,16.94,0,1,0,16.93,16.93A16.93,16.93,0,0,0,426.37,244.22Zm-.29,30.45a13.23,13.23,0,1,1,13.23-13.23A13.23,13.23,0,0,1,426.08,274.67Z" transform="translate(-248 -213.26)"/><path class="cls-10" d="M426.47,253.69a7.57,7.57,0,1,0,7.57,7.57A7.57,7.57,0,0,0,426.47,253.69Zm-.13,13.61a5.92,5.92,0,1,1,5.92-5.91A5.91,5.91,0,0,1,426.34,267.3Z" transform="translate(-248 -213.26)"/><circle class="cls-1" cx="368.22" cy="323.19" r="5.98" transform="translate(-312.4 -120.01) rotate(-13.28)"/><path class="cls-1" d="M368,309.87a13.37,13.37,0,1,0,13.37,13.37A13.37,13.37,0,0,0,368,309.87Zm.39,20.84a7.65,7.65,0,1,1,7.66-7.65A7.65,7.65,0,0,1,368.35,330.71Z" transform="translate(-248 -213.26)"/><path class="cls-1" d="M367.61,302.33a22.22,22.22,0,1,0,22.22,22.21A22.21,22.21,0,0,0,367.61,302.33Zm.64,37.73A17.11,17.11,0,1,1,385.36,323,17.12,17.12,0,0,1,368.25,340.06Z" transform="translate(-248 -213.26)"/><path class="cls-11" d="M368.09,295.63a28.44,28.44,0,1,0,28.43,28.43A28.44,28.44,0,0,0,368.09,295.63Zm-.48,51.13a22.22,22.22,0,1,1,22.22-22.22A22.22,22.22,0,0,1,367.61,346.76Z" transform="translate(-248 -213.26)"/><path class="cls-12" d="M368.25,305.84A17.11,17.11,0,1,0,385.36,323,17.12,17.12,0,0,0,368.25,305.84ZM368,336.61a13.37,13.37,0,1,1,13.37-13.37A13.37,13.37,0,0,1,368,336.61Z" transform="translate(-248 -213.26)"/><path class="cls-13" d="M368.35,315.41a7.65,7.65,0,1,0,7.66,7.65A7.65,7.65,0,0,0,368.35,315.41Zm-.13,13.76a6,6,0,1,1,6-6A6,6,0,0,1,368.22,329.17Z" transform="translate(-248 -213.26)"/><ellipse class="cls-14" cx="19.87" cy="52.56" rx="7.92" ry="7.64"/><ellipse class="cls-15" cx="138.04" cy="19.81" rx="7.92" ry="7.64"/><ellipse class="cls-16" cx="126.73" cy="64.69" rx="7.92" ry="7.64"/><ellipse class="cls-17" cx="174.45" cy="107.34" rx="16.69" ry="16.11"/><ellipse class="cls-18" cx="63.83" cy="81.79" rx="16.69" ry="16.11"/><path class="cls-19" d="M473,537.11c-14.7-6.71-40.67-22.12-30.27-43.9,23.75-49.73,27.41-93.33,25.64-123.22a15.81,15.81,0,0,0-8.95.5L432.89,380c7.38,29,11.79,69.09,2.39,117.32a22.93,22.93,0,0,0,1.41,14.1c-6.25-5.58-10.05-13-8.11-23,8.33-42.72,5.81-79,0-106.91L385.2,396.93l-48.63,17.32c16.45,25.32,41.22,54.07,78.22,80.12a24.54,24.54,0,0,1,11,21.27,25.57,25.57,0,0,0-8.43-9.54c-42.15-29.68-68.42-62.87-84.61-90.48L311,423.37a15.16,15.16,0,0,0-7.77,6.13c18.83,23.76,50.87,54.33,102,77.08,22.57,10,13.19,38,6.53,52.35a4,4,0,0,0,5.07,5.25l4.9-1.75a4.72,4.72,0,0,1,.24-.69c4.2-9,9.48-23.5,7.14-35.48,7,8.89,5.5,21.81,2.11,32.79l13.56-4.83,16.2-5.77c-9.72-5.8-19.74-14.16-21.71-24.71,6.75,9.5,19.29,16.46,27.94,20.4a3.87,3.87,0,0,1,1.71,1.49l3.81-1.36A3.83,3.83,0,0,0,473,537.11Z" transform="translate(-248 -213.26)"/><path class="cls-20" d="M380.83,387.08,426.14,371a226.51,226.51,0,0,0-8.77-27.25l-46.75,16.65-53.14,18.92a251.53,251.53,0,0,0,13.29,25.64Z" transform="translate(-248 -213.26)"/><path class="cls-21" d="M430,369.58l25.09-8.94a15.85,15.85,0,0,1,12.65.87c-.61-6.17-1.43-11.61-2.28-16.2-1.71-9.15-11.53-14.63-20.58-11.41l-25.06,8.93c.27.47.55.93.78,1.43A214.12,214.12,0,0,1,430,369.58Z" transform="translate(-248 -213.26)"/><path class="cls-22" d="M306.58,413.52l20.83-7.41A237.47,237.47,0,0,1,315.47,380l-19.1,6.8a14.73,14.73,0,0,0-8,21.57c2.43,4,5.47,8.65,9.15,13.73A15.1,15.1,0,0,1,306.58,413.52Z" transform="translate(-248 -213.26)"/></svg>