<svg id="Слой_1" data-name="Слой 1" xmlns="http://www.w3.org/2000/svg" xmlns:xlink="http://www.w3.org/1999/xlink" viewBox="0 0 195.4 265.2"><defs><style>.cls-1{fill:url(#Безымянный_градиент_34);}.cls-2{fill:url(#Безымянный_градиент_34-2);}.cls-3{fill:url(#Безымянный_градиент_34-3);}.cls-4{fill:url(#Безымянный_градиент_34-4);}.cls-5{fill:url(#Безымянный_градиент_34-5);}.cls-6{fill:url(#Безымянный_градиент_34-6);}.cls-7{fill:url(#Безымянный_градиент_34-7);}.cls-8{fill:url(#Безымянный_градиент_34-8);}.cls-9{fill:url(#Безымянный_градиент_34-9);}.cls-10{fill:url(#Безымянный_градиент_34-10);}.cls-11{fill:url(#Безымянный_градиент_34-11);}.cls-12{fill:url(#Безымянный_градиент_34-12);}.cls-13{fill:url(#Безымянный_градиент_34-13);}.cls-14{fill:url(#Безымянный_градиент_34-14);}.cls-15{fill:url(#Безымянный_градиент_34-15);}.cls-16{fill:url(#Безымянный_градиент_34-16);}.cls-17{fill:url(#Безымянный_градиент_34-17);}.cls-18{fill:url(#Безымянный_градиент_34-18);}.cls-19{fill:url(#Безымянный_градиент_34-19);}.cls-20{fill:url(#Безымянный_градиент_34-20);}.cls-21{fill:url(#Безымянный_градиент_34-21);}.cls-22{fill:url(#Безымянный_градиент_34-22);}.cls-23{fill:url(#Безымянный_градиент_34-23);}.cls-24{fill:url(#Безымянный_градиент_34-24);}.cls-25{fill:url(#Безымянный_градиент_34-25);}.cls-26{fill:url(#Безымянный_градиент_34-26);}.cls-27{fill:url(#Безымянный_градиент_34-27);}.cls-28{fill:url(#Безымянный_градиент_34-28);}.cls-29{fill:url(#Безымянный_градиент_34-29);}.cls-30{fill:url(#Безымянный_градиент_34-30);}.cls-31{fill:url(#Безымянный_градиент_34-31);}.cls-32{fill:url(#Безымянный_градиент_34-32);}.cls-33{fill:url(#Безымянный_градиент_34-33);}.cls-34{fill:url(#Безымянный_градиент_34-34);}.cls-35{fill:url(#Безымянный_градиент_34-35);}.cls-36{fill:url(#Безымянный_градиент_34-36);}.cls-37{fill:url(#Безымянный_градиент_34-37);}.cls-38{fill:url(#Безымянный_градиент_34-38);}.cls-39{fill:url(#Безымянный_градиент_34-39);}.cls-40{fill:url(#Безымянный_градиент_34-40);}.cls-41{fill:url(#Безымянный_градиент_34-41);}.cls-42{fill:url(#Безымянный_градиент_34-42);}.cls-43{fill:url(#Безымянный_градиент_34-43);}.cls-44{fill:url(#Безымянный_градиент_34-44);}.cls-45{fill:url(#Безымянный_градиент_34-45);}.cls-46{fill:url(#Безымянный_градиент_34-46);}.cls-47{fill:url(#Безымянный_градиент_34-47);}.cls-48{fill:url(#Безымянный_градиент_34-48);}.cls-49{fill:url(#Безымянный_градиент_34-49);}.cls-50{fill:url(#Безымянный_градиент_34-50);}.cls-51{fill:url(#Безымянный_градиент_34-51);}.cls-52{fill:url(#Безымянный_градиент_34-52);}.cls-53{fill:url(#Безымянный_градиент_34-53);}.cls-54{fill:url(#Безымянный_градиент_34-54);}.cls-55{fill:url(#Безымянный_градиент_34-55);}.cls-56{fill:url(#Безымянный_градиент_34-56);}.cls-57{fill:url(#Безымянный_градиент_34-57);}.cls-58{fill:url(#Безымянный_градиент_34-58);}.cls-59{fill:url(#Безымянный_градиент_34-59);}.cls-60{fill:url(#Безымянный_градиент_34-60);}.cls-61{fill:url(#Безымянный_градиент_34-61);}.cls-62{fill:url(#Безымянный_градиент_34-62);}.cls-63{fill:url(#Безымянный_градиент_34-63);}.cls-64{fill:url(#Безымянный_градиент_34-64);}.cls-65{fill:url(#Безымянный_градиент_34-65);}.cls-66{fill:url(#Безымянный_градиент_34-66);}.cls-67{fill:url(#Безымянный_градиент_34-67);}.cls-68{fill:url(#Безымянный_градиент_34-68);}.cls-69{fill:url(#Безымянный_градиент_34-69);}.cls-70{fill:url(#Безымянный_градиент_34-70);}.cls-71{fill:url(#Безымянный_градиент_34-71);}.cls-72{fill:url(#Безымянный_градиент_34-72);}</style><linearGradient id="Безымянный_градиент_34" x1="326.16" y1="80.87" x2="347.53" y2="80.87" gradientTransform="translate(-27.91 -44.89) rotate(33.96)" gradientUnits="userSpaceOnUse"><stop offset="0" stop-color="#7a0090"/><stop offset="1" stop-color="#de1a6a"/></linearGradient><linearGradient id="Безымянный_градиент_34-2" x1="243.12" y1="85.12" x2="253.95" y2="85.12" gradientTransform="translate(147.83 -97.58) rotate(74.84)" xlink:href="#Безымянный_градиент_34"/><linearGradient id="Безымянный_градиент_34-3" x1="219.1" y1="13.09" x2="229.93" y2="13.09" xlink:href="#Безымянный_градиент_34"/><linearGradient id="Безымянный_градиент_34-4" x1="186.47" y1="-44.54" x2="209.78" y2="-44.54" gradientTransform="translate(66.49 -150.72) rotate(74.84)" xlink:href="#Безымянный_градиент_34"/><linearGradient id="Безымянный_градиент_34-5" x1="179.21" y1="39.05" x2="202.52" y2="39.05" gradientTransform="translate(96.34 -100.3) rotate(74.84)" xlink:href="#Безымянный_градиент_34"/><linearGradient id="Безымянный_градиент_34-6" x1="125.64" y1="43.47" x2="148.95" y2="43.47" gradientTransform="translate(67.73 -76.02) rotate(74.84)" xlink:href="#Безымянный_градиент_34"/><linearGradient id="Безымянный_градиент_34-7" x1="170.04" y1="77.06" x2="193.35" y2="77.06" gradientTransform="translate(106.6 -74.99) rotate(74.84)" xlink:href="#Безымянный_градиент_34"/><linearGradient id="Безымянный_градиент_34-8" x1="150.09" y1="-0.07" x2="173.4" y2="-0.07" gradientTransform="translate(63.9 -110.68) rotate(74.84)" xlink:href="#Безымянный_градиент_34"/><linearGradient id="Безымянный_градиент_34-9" x1="248.15" y1="-64.1" x2="271.46" y2="-64.1" gradientTransform="translate(93.57 -186.91) rotate(74.84)" xlink:href="#Безымянный_градиент_34"/><linearGradient id="Безымянный_градиент_34-10" x1="229.26" y1="34.84" x2="240.1" y2="34.84" gradientTransform="translate(119.51 -120.5) rotate(74.84)" xlink:href="#Безымянный_градиент_34"/><linearGradient id="Безымянный_градиент_34-11" x1="260.12" y1="34.95" x2="270.95" y2="34.95" gradientTransform="translate(137.09 -132.99) rotate(74.84)" xlink:href="#Безымянный_градиент_34"/><linearGradient id="Безымянный_градиент_34-12" x1="282.47" y1="8.42" x2="293.3" y2="8.42" gradientTransform="translate(138.98 -157.14) rotate(74.84)" xlink:href="#Безымянный_градиент_34"/><linearGradient id="Безымянный_градиент_34-13" x1="251.81" y1="8.59" x2="262.64" y2="8.59" xlink:href="#Безымянный_градиент_34"/><linearGradient id="Безымянный_градиент_34-14" x1="251.82" y1="55.23" x2="262.65" y2="55.23" xlink:href="#Безымянный_градиент_34"/><linearGradient id="Безымянный_градиент_34-15" x1="242.49" y1="-22.89" x2="253.32" y2="-22.89" xlink:href="#Безымянный_градиент_34"/><linearGradient id="Безымянный_градиент_34-16" x1="224.06" y1="-5.98" x2="234.89" y2="-5.98" xlink:href="#Безымянный_градиент_34"/><linearGradient id="Безымянный_градиент_34-17" x1="218.45" y1="71.93" x2="229.28" y2="71.93" xlink:href="#Безымянный_градиент_34"/><linearGradient id="Безымянный_градиент_34-18" x1="271.8" y1="-35.51" x2="282.64" y2="-35.51" xlink:href="#Безымянный_градиент_34"/><linearGradient id="Безымянный_градиент_34-19" x1="260.51" y1="-12.09" x2="271.34" y2="-12.09" xlink:href="#Безымянный_градиент_34"/><linearGradient id="Безымянный_градиент_34-20" x1="299.34" y1="-14.86" x2="310.17" y2="-14.86" gradientTransform="translate(139.11 -177.22) rotate(74.84)" xlink:href="#Безымянный_градиент_34"/><linearGradient id="Безымянный_градиент_34-21" x1="293.5" y1="48.26" x2="298.85" y2="48.26" xlink:href="#Безымянный_градиент_34"/><linearGradient id="Безымянный_градиент_34-22" x1="274.1" y1="57.14" x2="279.45" y2="57.14" xlink:href="#Безымянный_градиент_34"/><linearGradient id="Безымянный_градиент_34-23" x1="294.26" y1="35.2" x2="299.61" y2="35.2" gradientTransform="translate(154.98 -145.61) rotate(74.83)" xlink:href="#Безымянный_градиент_34"/><linearGradient id="Безымянный_градиент_34-24" x1="282.66" y1="26.05" x2="288.01" y2="26.05" gradientTransform="translate(144.68 -146.08) rotate(74.83)" xlink:href="#Безымянный_градиент_34"/><linearGradient id="Безымянный_градиент_34-25" x1="307.6" y1="37.5" x2="312.95" y2="37.5" xlink:href="#Безымянный_градиент_34"/><linearGradient id="Безымянный_градиент_34-26" x1="317.38" y1="31.75" x2="322.73" y2="31.75" xlink:href="#Безымянный_градиент_34"/><linearGradient id="Безымянный_градиент_34-27" x1="263.11" y1="75.79" x2="268.46" y2="75.79" xlink:href="#Безымянный_градиент_34"/><linearGradient id="Безымянный_градиент_34-28" x1="305.36" y1="60.67" x2="310.71" y2="60.67" gradientTransform="translate(171.64 -135.66) rotate(74.83)" xlink:href="#Безымянный_градиент_34"/><linearGradient id="Безымянный_градиент_34-29" x1="314.76" y1="67.31" x2="320.11" y2="67.31" xlink:href="#Безымянный_градиент_34"/><linearGradient id="Безымянный_градиент_34-30" x1="314.1" y1="55.28" x2="319.45" y2="55.28" gradientTransform="translate(174.45 -142.27) rotate(74.84)" xlink:href="#Безымянный_градиент_34"/><linearGradient id="Безымянный_градиент_34-31" x1="290.06" y1="61.41" x2="295.41" y2="61.41" gradientTransform="translate(163.25 -129.02) rotate(74.83)" xlink:href="#Безымянный_градиент_34"/><linearGradient id="Безымянный_градиент_34-32" x1="308.67" y1="3.34" x2="314.02" y2="3.34" gradientTransform="translate(150.27 -169.57) rotate(74.84)" xlink:href="#Безымянный_градиент_34"/><linearGradient id="Безымянный_градиент_34-33" x1="295.97" y1="20.58" x2="301.32" y2="20.58" xlink:href="#Безымянный_градиент_34"/><linearGradient id="Безымянный_градиент_34-34" x1="315.53" y1="17.06" x2="320.88" y2="17.06" xlink:href="#Безымянный_градиент_34"/><linearGradient id="Безымянный_градиент_34-35" x1="247.65" y1="34.37" x2="253" y2="34.37" gradientTransform="translate(128.18 -127.13) rotate(74.83)" xlink:href="#Безымянный_градиент_34"/><linearGradient id="Безымянный_градиент_34-36" x1="213.86" y1="43.73" x2="219.2" y2="43.73" gradientTransform="translate(112.84 -108.08) rotate(74.84)" xlink:href="#Безымянный_градиент_34"/><linearGradient id="Безымянный_градиент_34-37" x1="236.86" y1="58.43" x2="242.21" y2="58.43" gradientTransform="translate(131.84 -109.09) rotate(74.83)" xlink:href="#Безымянный_градиент_34"/><linearGradient id="Безымянный_градиент_34-38" x1="235.52" y1="9.38" x2="240.87" y2="9.38" xlink:href="#Безымянный_градиент_34"/><linearGradient id="Безымянный_градиент_34-39" x1="247.38" y1="-5.09" x2="252.73" y2="-5.09" xlink:href="#Безымянный_градиент_34"/><linearGradient id="Безымянный_градиент_34-40" x1="269.97" y1="12.95" x2="275.32" y2="12.95" xlink:href="#Безымянный_градиент_34"/><linearGradient id="Безымянный_градиент_34-41" x1="278.79" y1="-10.75" x2="284.14" y2="-10.75" gradientTransform="translate(127.52 -165.4) rotate(74.83)" xlink:href="#Безымянный_градиент_34"/><linearGradient id="Безымянный_градиент_34-42" x1="263.21" y1="-25.52" x2="268.56" y2="-25.52" xlink:href="#Безымянный_градиент_34"/><linearGradient id="Безымянный_градиент_34-43" x1="252.72" y1="-36.49" x2="258.07" y2="-36.49" xlink:href="#Безымянный_градиент_34"/><linearGradient id="Безымянный_градиент_34-44" x1="206.25" y1="0.34" x2="211.6" y2="0.34" xlink:href="#Безымянный_градиент_34"/><linearGradient id="Безымянный_градиент_34-45" x1="180.13" y1="12.51" x2="185.48" y2="12.51" xlink:href="#Безымянный_градиент_34"/><linearGradient id="Безымянный_градиент_34-46" x1="193.12" y1="-25.74" x2="198.47" y2="-25.74" xlink:href="#Безымянный_градиент_34"/><linearGradient id="Безымянный_градиент_34-47" x1="205.03" y1="18.5" x2="210.38" y2="18.5" xlink:href="#Безымянный_градиент_34"/><linearGradient id="Безымянный_градиент_34-48" x1="165.52" y1="49.38" x2="170.87" y2="49.38" xlink:href="#Безымянный_градиент_34"/><linearGradient id="Безымянный_градиент_34-49" x1="228.42" y1="-24.5" x2="233.76" y2="-24.5" gradientTransform="translate(93.33 -152.73) rotate(74.83)" xlink:href="#Безымянный_градиент_34"/><linearGradient id="Безымянный_градиент_34-50" x1="279.55" y1="42.55" x2="284.9" y2="42.55" gradientTransform="translate(149.68 -135.46) rotate(74.84)" xlink:href="#Безымянный_градиент_34"/><linearGradient id="Безымянный_градиент_34-51" x1="294.5" y1="71.22" x2="297.8" y2="71.22" xlink:href="#Безымянный_градиент_34"/><linearGradient id="Безымянный_градиент_34-52" x1="280.14" y1="72.9" x2="283.44" y2="72.9" xlink:href="#Безымянный_градиент_34"/><linearGradient id="Безымянный_градиент_34-53" x1="319.84" y1="73.54" x2="323.13" y2="73.54" xlink:href="#Безымянный_градиент_34"/><linearGradient id="Безымянный_градиент_34-54" x1="327.22" y1="79.48" x2="328.93" y2="79.48" xlink:href="#Безымянный_градиент_34"/><linearGradient id="Безымянный_градиент_34-55" x1="324.05" y1="68.45" x2="325.77" y2="68.45" xlink:href="#Безымянный_градиент_34"/><linearGradient id="Безымянный_градиент_34-56" x1="299.94" y1="-34.36" x2="301.66" y2="-34.36" xlink:href="#Безымянный_градиент_34"/><linearGradient id="Безымянный_градиент_34-57" x1="302.81" y1="67.31" x2="304.53" y2="67.31" xlink:href="#Безымянный_градиент_34"/><linearGradient id="Безымянный_градиент_34-58" x1="310.75" y1="26.66" x2="312.46" y2="26.66" xlink:href="#Безымянный_градиент_34"/><linearGradient id="Безымянный_градиент_34-59" x1="282.44" y1="64.91" x2="284.16" y2="64.91" xlink:href="#Безымянный_градиент_34"/><linearGradient id="Безымянный_градиент_34-60" x1="251.67" y1="21.02" x2="253.39" y2="21.02" xlink:href="#Безымянный_градиент_34"/><linearGradient id="Безымянный_градиент_34-61" x1="251.71" y1="71.28" x2="253.42" y2="71.28" xlink:href="#Безымянный_градиент_34"/><linearGradient id="Безымянный_градиент_34-62" x1="271.04" y1="47.08" x2="272.76" y2="47.08" xlink:href="#Безымянный_градиент_34"/><linearGradient id="Безымянный_градиент_34-63" x1="270.67" y1="23.67" x2="272.39" y2="23.67" xlink:href="#Безымянный_градиент_34"/><linearGradient id="Безымянный_градиент_34-64" x1="244.87" y1="45.45" x2="246.59" y2="45.45" xlink:href="#Безымянный_градиент_34"/><linearGradient id="Безымянный_градиент_34-65" x1="300.08" y1="54.27" x2="301.79" y2="54.27" xlink:href="#Безымянный_градиент_34"/><linearGradient id="Безымянный_градиент_34-66" x1="304.07" y1="12.4" x2="305.79" y2="12.4" xlink:href="#Безымянный_градиент_34"/><linearGradient id="Безымянный_градиент_34-67" x1="288.69" y1="39.2" x2="290.4" y2="39.2" xlink:href="#Безымянный_градиент_34"/><linearGradient id="Безымянный_градиент_34-68" x1="307.81" y1="72.27" x2="311.1" y2="72.27" xlink:href="#Безымянный_градиент_34"/><linearGradient id="Безымянный_градиент_34-69" x1="320.78" y1="61.33" x2="324.07" y2="61.33" xlink:href="#Безымянный_градиент_34"/><linearGradient id="Безымянный_градиент_34-70" x1="322.56" y1="51.22" x2="325.85" y2="51.22" xlink:href="#Безымянный_градиент_34"/><linearGradient id="Безымянный_градиент_34-71" x1="320.73" y1="42.49" x2="324.02" y2="42.49" xlink:href="#Безымянный_градиент_34"/><linearGradient id="Безымянный_градиент_34-72" x1="307.13" y1="51.28" x2="310.4" y2="51.28" xlink:href="#Безымянный_градиент_34"/></defs><title>Огонь бенгальский СВГ</title><path class="cls-1" d="M206.06,215.85a12.34,12.34,0,0,0,4.62-5.18l33.16-62.3c2.09-3.92,2.39-7.88.68-8.84s-4.79,1.43-6.88,5.36l-33.16,62.29c-1.46,2.74-2,5.5-1.68,7.24L167.46,280.8l3.1,1.75Z" transform="translate(-50.23 -17.35)"/><ellipse class="cls-2" cx="130.67" cy="164.56" rx="5.24" ry="5.43" transform="translate(-126.06 108.3) rotate(-40.87)"/><path class="cls-3" d="M149,96.28a5.15,5.15,0,0,0,6.92-2.71,5.52,5.52,0,0,0-3-7.06,5.16,5.16,0,0,0-6.92,2.72A5.51,5.51,0,0,0,149,96.28Z" transform="translate(-50.23 -17.35)"/><ellipse class="cls-4" cx="161.3" cy="28.85" rx="11.27" ry="11.68" transform="translate(-29.78 95.25) rotate(-40.87)"/><ellipse class="cls-5" cx="108.57" cy="94.13" rx="11.27" ry="11.68" transform="translate(-85.35 76.66) rotate(-40.87)"/><ellipse class="cls-6" cx="61.68" cy="67.87" rx="11.27" ry="11.68" transform="translate(-79.6 39.57) rotate(-40.88)"/><ellipse class="cls-7" cx="79.74" cy="120.53" rx="11.27" ry="11.68" transform="translate(-109.66 64.24) rotate(-40.88)"/><ellipse class="cls-8" cx="106.28" cy="45.41" rx="11.27" ry="11.68" transform="translate(-54.03 63.28) rotate(-40.87)"/><ellipse class="cls-9" cx="223.38" cy="47.09" rx="11.27" ry="11.68" transform="translate(-26.57 140.33) rotate(-40.88)"/><ellipse class="cls-10" cx="147.27" cy="115.12" rx="5.24" ry="5.43" transform="translate(-89.65 107.1) rotate(-40.87)"/><ellipse class="cls-11" cx="172.8" cy="132.44" rx="5.24" ry="5.43" transform="translate(-94.76 128.04) rotate(-40.88)"/><ellipse class="cls-12" cx="206.16" cy="122.93" rx="5.24" ry="5.43" transform="translate(-80.4 147.54) rotate(-40.87)"/><path class="cls-13" d="M178.65,110.83a5.15,5.15,0,0,0,6.92-2.72,5.52,5.52,0,0,0-2.95-7.06,5.16,5.16,0,0,0-6.92,2.72A5.52,5.52,0,0,0,178.65,110.83Z" transform="translate(-50.23 -17.35)"/><path class="cls-14" d="M156.57,139.74a5.16,5.16,0,0,0-6.92,2.72,5.52,5.52,0,0,0,2.95,7.06,5.16,5.16,0,0,0,6.92-2.72A5.52,5.52,0,0,0,156.57,139.74Z" transform="translate(-50.23 -17.35)"/><path class="cls-15" d="M188.5,79.51a5.16,5.16,0,0,0,6.93-2.72,5.52,5.52,0,0,0-3-7.05,5.16,5.16,0,0,0-6.93,2.71A5.53,5.53,0,0,0,188.5,79.51Z" transform="translate(-50.23 -17.35)"/><path class="cls-16" d="M163.77,83.24a5.15,5.15,0,0,0,6.92-2.71,5.52,5.52,0,0,0-2.95-7.06,5.16,5.16,0,0,0-6.92,2.72A5.5,5.5,0,0,0,163.77,83.24Z" transform="translate(-50.23 -17.35)"/><path class="cls-17" d="M119.57,135a5.15,5.15,0,0,0-6.92,2.72,5.52,5.52,0,0,0,2.95,7.06,5.16,5.16,0,0,0,6.92-2.72A5.52,5.52,0,0,0,119.57,135Z" transform="translate(-50.23 -17.35)"/><path class="cls-18" d="M219.87,85.42a5.15,5.15,0,0,0,6.92-2.72,5.52,5.52,0,0,0-2.95-7.06,5.16,5.16,0,0,0-6.92,2.72A5.52,5.52,0,0,0,219.87,85.42Z" transform="translate(-50.23 -17.35)"/><path class="cls-19" d="M197.42,98.54a5.16,5.16,0,0,0,6.92-2.72,5.52,5.52,0,0,0-3-7.06,5.16,5.16,0,0,0-6.92,2.72A5.52,5.52,0,0,0,197.42,98.54Z" transform="translate(-50.23 -17.35)"/><ellipse class="cls-20" cx="233.16" cy="113.04" rx="5.24" ry="5.43" transform="translate(-67.35 162.8) rotate(-40.87)"/><path class="cls-21" d="M191.76,158.2a2.53,2.53,0,0,0-3.42,1.34A2.72,2.72,0,0,0,189.8,163a2.56,2.56,0,0,0,3.42-1.34A2.73,2.73,0,0,0,191.76,158.2Z" transform="translate(-50.23 -17.35)"/><path class="cls-22" d="M170.71,154.71a2.55,2.55,0,0,0-3.42,1.34,2.73,2.73,0,0,0,1.45,3.49,2.55,2.55,0,0,0,3.42-1.34A2.73,2.73,0,0,0,170.71,154.71Z" transform="translate(-50.23 -17.35)"/><ellipse class="cls-23" cx="198.71" cy="150.2" rx="2.59" ry="2.68" transform="translate(-100.06 149.29) rotate(-40.87)"/><ellipse class="cls-24" cx="194.2" cy="136.13" rx="2.59" ry="2.68" transform="translate(-91.96 142.91) rotate(-40.87)"/><path class="cls-25" d="M209.46,157.14a2.55,2.55,0,0,0-3.42,1.35A2.72,2.72,0,0,0,207.5,162a2.56,2.56,0,0,0,3.42-1.34A2.74,2.74,0,0,0,209.46,157.14Z" transform="translate(-50.23 -17.35)"/><path class="cls-26" d="M220.79,157.84a2.55,2.55,0,0,0-3.42,1.34,2.74,2.74,0,0,0,1.45,3.49,2.55,2.55,0,0,0,3.42-1.35A2.72,2.72,0,0,0,220.79,157.84Z" transform="translate(-50.23 -17.35)"/><path class="cls-27" d="M151.17,164.05a2.54,2.54,0,0,0-3.42,1.34,2.72,2.72,0,0,0,1.46,3.48,2.55,2.55,0,0,0,3.42-1.34A2.72,2.72,0,0,0,151.17,164.05Z" transform="translate(-50.23 -17.35)"/><ellipse class="cls-28" cx="193.68" cy="177.52" rx="2.59" ry="2.68" transform="translate(-119.17 152.66) rotate(-40.87)"/><path class="cls-29" d="M199.37,186.24a2.58,2.58,0,0,0-3.68.36,2.66,2.66,0,0,0,.48,3.71,2.59,2.59,0,0,0,3.68-.35A2.67,2.67,0,0,0,199.37,186.24Z" transform="translate(-50.23 -17.35)"/><ellipse class="cls-30" cx="203.94" cy="177.94" rx="2.59" ry="2.68" transform="translate(-116.94 159.5) rotate(-40.87)"/><ellipse class="cls-31" cx="180.58" cy="169.58" rx="2.59" ry="2.68" transform="translate(-117.17 142.15) rotate(-40.87)"/><ellipse class="cls-32" cx="228.45" cy="131.82" rx="2.59" ry="2.68" transform="translate(-80.78 164.32) rotate(-40.88)"/><path class="cls-33" d="M207.31,141.44a2.56,2.56,0,0,0,3.42-1.34,2.74,2.74,0,0,0-1.46-3.49,2.55,2.55,0,0,0-3.42,1.35A2.72,2.72,0,0,0,207.31,141.44Z" transform="translate(-50.23 -17.35)"/><path class="cls-34" d="M225.5,149.44a2.55,2.55,0,0,0,3.42-1.34,2.72,2.72,0,0,0-1.46-3.48,2.53,2.53,0,0,0-3.41,1.34A2.72,2.72,0,0,0,225.5,149.44Z" transform="translate(-50.23 -17.35)"/><ellipse class="cls-35" cx="160.51" cy="123.47" rx="2.59" ry="2.68" transform="translate(-91.89 117.78) rotate(-40.87)"/><ellipse class="cls-36" cx="127.25" cy="112.35" rx="2.59" ry="2.68" transform="translate(-92.72 93.34) rotate(-40.88)"/><ellipse class="cls-37" cx="138.12" cy="137.39" rx="2.59" ry="2.68" transform="translate(-106.46 106.53) rotate(-40.87)"/><path class="cls-38" d="M163.43,98.37A2.54,2.54,0,0,0,166.85,97a2.72,2.72,0,0,0-1.46-3.48A2.55,2.55,0,0,0,162,94.89,2.72,2.72,0,0,0,163.43,98.37Z" transform="translate(-50.23 -17.35)"/><path class="cls-39" d="M181.35,93a2.55,2.55,0,0,0,3.42-1.34,2.73,2.73,0,0,0-1.46-3.49,2.56,2.56,0,0,0-3.42,1.34A2.73,2.73,0,0,0,181.35,93Z" transform="translate(-50.23 -17.35)"/><path class="cls-40" d="M193.43,119.24a2.72,2.72,0,0,0-1.46-3.48,2.54,2.54,0,0,0-3.41,1.34,2.73,2.73,0,0,0,1.45,3.49A2.55,2.55,0,0,0,193.43,119.24Z" transform="translate(-50.23 -17.35)"/><ellipse class="cls-41" cx="211.54" cy="103.44" rx="2.59" ry="2.68" transform="translate(-66.34 146.29) rotate(-40.87)"/><path class="cls-42" d="M205.89,84.9a2.54,2.54,0,0,0,3.42-1.34,2.72,2.72,0,0,0-1.45-3.48,2.55,2.55,0,0,0-3.42,1.34A2.72,2.72,0,0,0,205.89,84.9Z" transform="translate(-50.23 -17.35)"/><path class="cls-43" d="M206.74,68.6a2.73,2.73,0,0,0-1.46-3.49,2.56,2.56,0,0,0-3.42,1.34,2.73,2.73,0,0,0,1.46,3.49A2.55,2.55,0,0,0,206.74,68.6Z" transform="translate(-50.23 -17.35)"/><path class="cls-44" d="M146.16,69.7A2.56,2.56,0,0,0,142.74,71a2.74,2.74,0,0,0,1.46,3.49,2.55,2.55,0,0,0,3.42-1.34A2.73,2.73,0,0,0,146.16,69.7Z" transform="translate(-50.23 -17.35)"/><path class="cls-45" d="M115.75,70a2.54,2.54,0,0,0,3.41-1.34,2.73,2.73,0,0,0-1.45-3.49,2.55,2.55,0,0,0-3.42,1.34A2.73,2.73,0,0,0,115.75,70Z" transform="translate(-50.23 -17.35)"/><path class="cls-46" d="M149.84,40.74a2.53,2.53,0,0,0-3.42,1.34,2.72,2.72,0,0,0,1.46,3.48,2.56,2.56,0,0,0,3.42-1.34A2.72,2.72,0,0,0,149.84,40.74Z" transform="translate(-50.23 -17.35)"/><path class="cls-47" d="M135,84.08a2.54,2.54,0,0,0-3.41,1.34A2.74,2.74,0,0,0,133,88.91a2.55,2.55,0,0,0,3.42-1.34A2.73,2.73,0,0,0,135,84.08Z" transform="translate(-50.23 -17.35)"/><path class="cls-48" d="M86.45,91.1A2.72,2.72,0,0,0,85,87.62,2.56,2.56,0,0,0,81.57,89,2.74,2.74,0,0,0,83,92.45,2.55,2.55,0,0,0,86.45,91.1Z" transform="translate(-50.23 -17.35)"/><ellipse class="cls-49" cx="177.44" cy="63.9" rx="2.59" ry="2.68" transform="translate(-48.78 114.34) rotate(-40.87)"/><ellipse class="cls-50" cx="182.39" cy="148.08" rx="2.59" ry="2.68" transform="translate(-102.65 138.15) rotate(-40.88)"/><path class="cls-51" d="M178.53,178.15a1.56,1.56,0,0,0-2.1.82,1.69,1.69,0,0,0,.9,2.15,1.57,1.57,0,0,0,2.1-.83A1.67,1.67,0,0,0,178.53,178.15Z" transform="translate(-50.23 -17.35)"/><path class="cls-52" d="M165.68,171.52a1.57,1.57,0,0,0-2.1.83,1.67,1.67,0,0,0,.9,2.14,1.57,1.57,0,0,0,2.1-.82A1.69,1.69,0,0,0,165.68,171.52Z" transform="translate(-50.23 -17.35)"/><path class="cls-53" d="M198.25,194.22a1.57,1.57,0,0,0-2.1.83,1.67,1.67,0,0,0,.9,2.14,1.56,1.56,0,0,0,2.1-.82A1.69,1.69,0,0,0,198.25,194.22Z" transform="translate(-50.23 -17.35)"/><path class="cls-54" d="M200.11,203.54a.83.83,0,0,0-1.1.43.88.88,0,0,0,.47,1.12.81.81,0,0,0,1.09-.43A.87.87,0,0,0,200.11,203.54Z" transform="translate(-50.23 -17.35)"/><path class="cls-55" d="M203.64,192.63a.81.81,0,0,0-1.09.43.86.86,0,0,0,.47,1.12.81.81,0,0,0,1.09-.43A.86.86,0,0,0,203.64,192.63Z" transform="translate(-50.23 -17.35)"/><path class="cls-56" d="M240.45,95.44a.82.82,0,0,0,1.1-.43.88.88,0,0,0-.47-1.12.81.81,0,0,0-1.09.43A.87.87,0,0,0,240.45,95.44Z" transform="translate(-50.23 -17.35)"/><path class="cls-57" d="M186.66,179.82a.81.81,0,0,0-1.09.43.86.86,0,0,0,.47,1.11.81.81,0,0,0,1.09-.43A.86.86,0,0,0,186.66,179.82Z" transform="translate(-50.23 -17.35)"/><path class="cls-58" d="M216.42,151.65a.86.86,0,0,0-.46-1.11.82.82,0,0,0-1.1.43.89.89,0,0,0,.47,1.12A.81.81,0,0,0,216.42,151.65Z" transform="translate(-50.23 -17.35)"/><path class="cls-59" d="M171.11,166.44a.81.81,0,0,0-1.09.43.87.87,0,0,0,.46,1.12.82.82,0,0,0,1.1-.43A.88.88,0,0,0,171.11,166.44Z" transform="translate(-50.23 -17.35)"/><path class="cls-60" d="M170.57,114a.87.87,0,0,0-.46-1.12.83.83,0,0,0-1.1.44.87.87,0,0,0,.47,1.11A.81.81,0,0,0,170.57,114Z" transform="translate(-50.23 -17.35)"/><path class="cls-61" d="M142.53,155.68a.88.88,0,0,0-.47-1.12.82.82,0,0,0-1.1.43.88.88,0,0,0,.47,1.12A.83.83,0,0,0,142.53,155.68Z" transform="translate(-50.23 -17.35)"/><path class="cls-62" d="M171.62,145.29a.81.81,0,0,0-1.1.43.87.87,0,0,0,.47,1.12.81.81,0,0,0,1.09-.43A.87.87,0,0,0,171.62,145.29Z" transform="translate(-50.23 -17.35)"/><path class="cls-63" d="M183.76,127.22a.83.83,0,0,0,1.1-.43.88.88,0,0,0-.47-1.12.82.82,0,0,0-1.1.43A.88.88,0,0,0,183.76,127.22Z" transform="translate(-50.23 -17.35)"/><path class="cls-64" d="M149.73,129.74a.87.87,0,0,0,.46,1.12.81.81,0,0,0,1.1-.43.88.88,0,0,0-.47-1.12A.81.81,0,0,0,149.73,129.74Z" transform="translate(-50.23 -17.35)"/><path class="cls-65" d="M191.68,167.47a.81.81,0,0,0-1.09.43.87.87,0,0,0,.46,1.12.82.82,0,0,0,1.1-.43A.88.88,0,0,0,191.68,167.47Z" transform="translate(-50.23 -17.35)"/><path class="cls-66" d="M218.85,136.1a.87.87,0,0,0-.47-1.12.81.81,0,0,0-1.09.43.87.87,0,0,0,.46,1.12A.82.82,0,0,0,218.85,136.1Z" transform="translate(-50.23 -17.35)"/><path class="cls-67" d="M191.12,149.73a.88.88,0,0,0-.47-1.12.81.81,0,0,0-1.09.43.87.87,0,0,0,.46,1.12A.81.81,0,0,0,191.12,149.73Z" transform="translate(-50.23 -17.35)"/><path class="cls-68" d="M189,186.45a1.57,1.57,0,0,0-2.1.83,1.68,1.68,0,0,0,.89,2.14,1.57,1.57,0,0,0,2.11-.82A1.69,1.69,0,0,0,189,186.45Z" transform="translate(-50.23 -17.35)"/><path class="cls-69" d="M206.75,186.77a1.69,1.69,0,0,0-.9-2.15,1.57,1.57,0,0,0-2.1.83,1.66,1.66,0,0,0,.89,2.14A1.57,1.57,0,0,0,206.75,186.77Z" transform="translate(-50.23 -17.35)"/><path class="cls-70" d="M213,177.23a1.58,1.58,0,0,0-2.11.83,1.67,1.67,0,0,0,.9,2.14,1.57,1.57,0,0,0,2.1-.83A1.66,1.66,0,0,0,213,177.23Z" transform="translate(-50.23 -17.35)"/><path class="cls-71" d="M216.34,169a1.57,1.57,0,0,0-2.11.82,1.69,1.69,0,0,0,.9,2.15,1.57,1.57,0,0,0,2.1-.83A1.66,1.66,0,0,0,216.34,169Z" transform="translate(-50.23 -17.35)"/><path class="cls-72" d="M198.91,171.67a1.59,1.59,0,0,0,2.11-.87,1.69,1.69,0,0,0-.87-2.18,1.59,1.59,0,0,0-2.11.87A1.7,1.7,0,0,0,198.91,171.67Z" transform="translate(-50.23 -17.35)"/></svg>