<svg id="Слой_1" data-name="Слой 1" xmlns="http://www.w3.org/2000/svg" xmlns:xlink="http://www.w3.org/1999/xlink" viewBox="0 0 210.26 282"><defs><style>.cls-1{fill:url(#Безымянный_градиент_34);}.cls-2{fill:url(#Безымянный_градиент_34-2);}.cls-3{fill:url(#Безымянный_градиент_34-3);}.cls-4{fill:url(#Безымянный_градиент_34-4);}</style><linearGradient id="Безымянный_градиент_34" x1="105.31" y1="183.33" x2="253.58" y2="183.33" gradientUnits="userSpaceOnUse"><stop offset="0" stop-color="#7a0090"/><stop offset="1" stop-color="#de1a6a"/></linearGradient><linearGradient id="Безымянный_градиент_34-2" x1="-58.35" y1="101.82" x2="-18.44" y2="101.82" gradientTransform="translate(65.25 -80.56) rotate(-18.74)" xlink:href="#Безымянный_градиент_34"/><linearGradient id="Безымянный_градиент_34-3" x1="-75.4" y1="147.62" x2="-55.71" y2="147.62" gradientTransform="translate(65.25 -80.56) rotate(-18.74)" xlink:href="#Безымянный_градиент_34"/><linearGradient id="Безымянный_градиент_34-4" x1="-37.91" y1="173.56" x2="-23.99" y2="173.56" gradientTransform="translate(65.25 -80.56) rotate(-18.74)" xlink:href="#Безымянный_градиент_34"/></defs><title>колонка СВГ</title><path class="cls-1" d="M236.51,79.67H122.37c-9.42,0-17.06,7.37-17.06,16.46v174.4c0,9.1,7.64,16.47,17.06,16.47H236.51c9.43,0,17.07-7.37,17.07-16.47V96.13C253.58,87,245.94,79.67,236.51,79.67Zm-55.7,80.16,14.29,13.79-14.29,13.79-14.29-13.79Zm-.4-3.75h.77l-.37.37Zm-12.66,47.29,13.06-12.6,13.05,12.6L180.81,216Zm11.31,14.28-10.59,10.22-13.06-12.6L166,205.05Zm16.55-12.6,10.59,10.22-13.06,12.6-10.59-10.22Zm1.74-1.68,14.29-13.79,10.59,10.22-14.29,13.79Zm-1.74-1.68-13.06-12.6,14.29-13.79,13.06,12.6Zm-16.55-12.6L166,201.69,151.71,187.9l13.06-12.6Zm-14.8,14.28-10.59,10.22L139.38,199.8,150,189.58Zm-12.33,11.9-13.68,13.2L124,214.68l13.68-13.2Zm1.74,1.69,13.06,12.6-13.68,13.19L140,230.15Zm14.8,14.28,10.59,10.22-13.67,13.19L154.8,244.43Zm1.75-1.68,10.59-10.22,10.58,10.22-10.58,10.22Zm22.92,1.68,13.67,13.19-10.59,10.22-13.67-13.19Zm1.74-1.68L207.94,217l13.67,13.19-13.05,12.6Zm14.8-14.29L224,201.48l13.68,13.2-14.29,13.79Zm3.7-27.37L225,176.73a56.31,56.31,0,0,1,8.16,12.56L224,198.12Zm-1.74-1.68-13.06-12.6,10.32-10a58.66,58.66,0,0,1,14.44,11.27Zm-14.8-14.29-14.29-13.79,1.94-1.87a60.26,60.26,0,0,1,22.16,6.19ZM198.92,93a4.25,4.25,0,1,1-4.4,4.25A4.33,4.33,0,0,1,198.92,93Zm-17.59,0a4.25,4.25,0,1,1-4.4,4.25A4.33,4.33,0,0,1,181.33,93ZM177,156.11l2.1,2-14.29,13.79L154,161.58A60.51,60.51,0,0,1,177,156.11Zm-25.23,6.61,11.3,10.9L150,186.22l-13.1-12.65A58.87,58.87,0,0,1,151.73,162.72Zm-16.54,12.6,13,12.58-10.59,10.22-11-10.61A57.36,57.36,0,0,1,135.19,175.32Zm-9.66,14.48,10.36,10L122.22,213l-1.79-1.73A55.13,55.13,0,0,1,125.53,189.8Zm-5.1,24.92v-.08l0,0Zm.19,3.19,1.6-1.55,14.29,13.79L127,239.29A55.07,55.07,0,0,1,120.62,217.91Zm7.65,23.56,10-9.64,13.06,12.6L140,255.4A57.76,57.76,0,0,1,128.27,241.47ZM141.82,257l11.23-10.84,10.59,10.22-8.81,8.5A59.55,59.55,0,0,1,141.82,257Zm15.45,8.9,8.12-7.84,12.4,12A60.57,60.57,0,0,1,157.27,265.86Zm9.86-9.52,13.68-13.2,13.67,13.2-13.67,13.19ZM184,269.84,196.22,258l7.31,7.05A60.3,60.3,0,0,1,184,269.84ZM205.9,264,198,256.34l10.59-10.22,10,9.62A59.35,59.35,0,0,1,205.9,264Zm14.44-9.87-10-9.69,13.06-12.6,8.23,7.95A57.26,57.26,0,0,1,220.34,254.12Zm12.43-16.57-7.67-7.4,13.21-12.74A55.15,55.15,0,0,1,232.77,237.55Zm-7.05-37.75,8.46-8.16a55.14,55.14,0,0,1,4.3,20.47Zm12.78-99.47a4.89,4.89,0,0,1-5,4.8h-11.4a4.89,4.89,0,0,1-5-4.8v-5a4.89,4.89,0,0,1,5-4.8h11.4a4.89,4.89,0,0,1,5,4.8Z" transform="translate(-43.32 -5)"/><path class="cls-2" d="M72,5.09,48.26,12.87c-1.2.39-1.74,1.91-1.21,3.41l8.89,25.28L49,43.83a2.91,2.91,0,0,0-1.9,3.72l.63,1.8a2.93,2.93,0,0,0,3.67,1.75l7.08-2.32,1.41-.46.75-.25L50.16,18.28l23.75-7.77,7.93,22.57-7.59,2.48a2.91,2.91,0,0,0-1.9,3.72l.63,1.8a2.93,2.93,0,0,0,3.67,1.75l7.73-2.53.76-.25,1.4-.46L75.11,7.09A2.69,2.69,0,0,0,72,5.09Z" transform="translate(-43.32 -5)"/><path class="cls-3" d="M55.72,68.9,44,72.73a1.27,1.27,0,0,0-.59,1.69L47.8,86.88,44.37,88a1.44,1.44,0,0,0-.93,1.84l.31.89a1.44,1.44,0,0,0,1.81.86l3.49-1.14.69-.23.37-.12L45,75.4l11.71-3.83L60.57,82.7l-3.74,1.23a1.44,1.44,0,0,0-.94,1.83l.32.89a1.42,1.42,0,0,0,1.8.86l3.82-1.25.37-.12.69-.23-5.63-16A1.34,1.34,0,0,0,55.72,68.9Z" transform="translate(-43.32 -5)"/><path class="cls-4" d="M95.32,85.68,87,88.39a.89.89,0,0,0-.42,1.19l3.1,8.82-2.42.79a1,1,0,0,0-.67,1.3l.22.63a1,1,0,0,0,1.28.61l2.47-.81.49-.16.27-.09L87.7,90.28,96,87.57l2.76,7.87-2.64.87a1,1,0,0,0-.67,1.3l.22.63a1,1,0,0,0,1.28.6l2.7-.88.26-.09.49-.16-4-11.33A1,1,0,0,0,95.32,85.68Z" transform="translate(-43.32 -5)"/></svg>