<svg id="Слой_1" data-name="Слой 1" xmlns="http://www.w3.org/2000/svg" xmlns:xlink="http://www.w3.org/1999/xlink" viewBox="0 0 586.68 168.08"><defs><style>.cls-1{isolation:isolate;font-size:54.97px;fill:#93278f;font-family:MullerMedium, Muller;}.cls-2{letter-spacing:-0.02em;}.cls-3{letter-spacing:0em;}.cls-4{letter-spacing:0em;}.cls-5{fill:url(#Безымянный_градиент_34);}.cls-6{fill:url(#Безымянный_градиент_34-2);}.cls-7{fill:url(#Безымянный_градиент_34-3);}.cls-8{fill:url(#Безымянный_градиент_34-4);}.cls-9{fill:url(#Безымянный_градиент_34-5);}.cls-10{fill:url(#Безымянный_градиент_34-6);}.cls-11{fill:url(#Безымянный_градиент_34-7);}</style><linearGradient id="Безымянный_градиент_34" x1="474.56" y1="712.14" x2="521.93" y2="723.81" gradientUnits="userSpaceOnUse"><stop offset="0" stop-color="#7a0090"/><stop offset="1" stop-color="#de1a6a"/></linearGradient><linearGradient id="Безымянный_градиент_34-2" x1="437.26" y1="683.54" x2="441.76" y2="684.64" xlink:href="#Безымянный_градиент_34"/><linearGradient id="Безымянный_градиент_34-3" x1="460.08" y1="685.02" x2="464.66" y2="686.15" xlink:href="#Безымянный_градиент_34"/><linearGradient id="Безымянный_градиент_34-4" x1="401.56" y1="683.28" x2="508.54" y2="709.64" xlink:href="#Безымянный_градиент_34"/><linearGradient id="Безымянный_градиент_34-5" x1="493.12" y1="668.39" x2="509.04" y2="672.31" xlink:href="#Безымянный_градиент_34"/><linearGradient id="Безымянный_градиент_34-6" x1="406.44" y1="612.95" x2="527.29" y2="642.73" xlink:href="#Безымянный_градиент_34"/><linearGradient id="Безымянный_градиент_34-7" x1="481.66" y1="689.03" x2="484.87" y2="689.82" xlink:href="#Безымянный_градиент_34"/></defs><title>коробочка лого</title><text class="cls-1" transform="translate(0 115.25)">millennium</text><text class="cls-1" transform="translate(443.6 114.75)"><tspan class="cls-2">ev</tspan><tspan class="cls-3" x="57.99" y="0">e</tspan><tspan class="cls-4" x="88.11" y="0">n</tspan><tspan x="120.21" y="0">t</tspan></text><path class="cls-5" d="M468.91,735.42A186.34,186.34,0,0,1,491,733.83a136.1,136.1,0,0,1,17.68,1.85c6.69,1,12.28-4.68,12.28-8.68s1.16-16.1,1-26.58a1.66,1.66,0,0,0-3.27-.38c-6.62,23.69-33.13,30.33-49.85,35.19Z" transform="translate(-113 -567.72)"/><path class="cls-6" d="M437.6,694.7c2.22,0,4.66-10.51,5.56-20.45a.41.41,0,0,0-.74-.29C434.63,684.31,435.37,694.7,437.6,694.7Z" transform="translate(-113 -567.72)"/><path class="cls-7" d="M460.44,695c3.2.53,4.43-9.71,4.54-18.26a.41.41,0,0,0-.78-.19C458.59,687.1,457.17,694.42,460.44,695Z" transform="translate(-113 -567.72)"/><path class="cls-8" d="M424.13,643.77a23.06,23.06,0,0,0-13.2,2,.35.35,0,0,0-.2.38c5.12,28.22,3.53,59.29.87,81.15a3.94,3.94,0,0,0,4.17,4.39c58.89-3.88,87.86-9.82,95.62-33.65a.35.35,0,0,0-.58-.35c-5.45,5.54-21.85,1.87-22.28-13.85a.41.41,0,0,0-.81,0c-1.9,10.86-3.38,15.31-7.09,15.31-4.45,0-3.93-12.3,5.19-23,.09-.1-1.52-10.73-8.88-10.73-6.13,0-8.59,3.21-9,3.86a.4.4,0,0,0-.06.26c1.68,20.39-1.74,29.45-9.12,29.45-2.88,0-8.49-7.32,4.9-29.22a.78.78,0,0,0,0-.83,9.63,9.63,0,0,0-7.73-3.52c-4.68,0-8,1-9.34,2a.78.78,0,0,0-.32.66c1.08,18.12-3.46,31.08-9.37,31.08s-9.28-18.28,5.93-31.9C442.9,667.16,438.17,646.05,424.13,643.77Z" transform="translate(-113 -567.72)"/><path class="cls-9" d="M509.57,668c2.66-.25-3.88-4.11-8.16-3a13.69,13.69,0,0,0-9.65,8.91C491.19,676.2,494,669.47,509.57,668Z" transform="translate(-113 -567.72)"/><path class="cls-10" d="M516.46,587.17c-29.41,0-34.12,30-37.06,25.3-2.18-3.49-4.12-8.82-9.34-21.06-3-7.7-6.34-23.67-17.14-23.65-13.86-.75-35.89,10-40,19.41-5.36,12.24,22.32,28,34.21,34a1.53,1.53,0,0,1-.61,2.89c-6.14.34-16,.79-24.19,1.15a13.29,13.29,0,0,0-12.6,14.95,13.84,13.84,0,0,1,7.09-2.59c19.47-1.39,25.21,16.15,26.3,18.74a61,61,0,0,1,2.39,7.84.41.41,0,0,0,.65.23c1.52-1.24,6-4.19,10.86-3.52s8.32,4.65,9.36,6.26a.4.4,0,0,0,.68,0c1.13-1.79,4.72-6.75,11.59-6.26,6.49.47,9.07,7.15,9.91,11.62a.41.41,0,0,0,.8,0c1-4.07,4.2-11.17,13.59-11.64,5.87-.3,10.8,5.5,10.33,7.86-.75,3.71-15.87.15-21.51,9.15l0,.12c-1.69,5.69-1.16,14.73,9.12,14.73,6.57,0,13.15-8.25,17-14.18a9.7,9.7,0,0,0,1.49-3.87c2.47-17.07-.87-33.6-3.32-43.75-1.82-4.09-3.86-4-13.53-5.71A162.69,162.69,0,0,0,476.24,623c-2.65,0-14.49.06-14.49.06C453.51,620.12,433.23,606,435,596c2.17-12.29,30,23,43.81,24.12,12.29,1,11.94-11.87,18.83-20.59,4.36-5.53,10-7.41,15.36-1.53,11.18,12.36,4.39,16.82-16.54,20.35,0,0,32.06-1.33,36.18-8.39C536.2,603.86,531.22,587.17,516.46,587.17Z" transform="translate(-113 -567.72)"/><path class="cls-11" d="M484.9,683.51c-3.26,3.06-5.07,11.28-3.53,11.93,2.81,1.19,4.1-8.21,4.21-11.61A.41.41,0,0,0,484.9,683.51Z" transform="translate(-113 -567.72)"/></svg>