<svg id="Слой_1" data-name="Слой 1" xmlns="http://www.w3.org/2000/svg" xmlns:xlink="http://www.w3.org/1999/xlink" viewBox="0 0 144.95 196.28"><defs><style>.cls-1{fill:url(#Безымянный_градиент_34);}.cls-2{fill:url(#Безымянный_градиент_34-2);}.cls-3{fill:url(#Безымянный_градиент_34-3);}.cls-4{fill:url(#Безымянный_градиент_34-4);}.cls-5{fill:url(#Безымянный_градиент_34-5);}.cls-6{fill:url(#Безымянный_градиент_34-6);}.cls-7{fill:url(#Безымянный_градиент_34-7);}</style><linearGradient id="Безымянный_градиент_34" x1="149.45" y1="215.1" x2="204.78" y2="228.73" gradientUnits="userSpaceOnUse"><stop offset="0" stop-color="#7a0090"/><stop offset="1" stop-color="#de1a6a"/></linearGradient><linearGradient id="Безымянный_градиент_34-2" x1="105.89" y1="181.69" x2="111.15" y2="182.99" xlink:href="#Безымянный_градиент_34"/><linearGradient id="Безымянный_градиент_34-3" x1="132.54" y1="183.43" x2="137.89" y2="184.75" xlink:href="#Безымянный_градиент_34"/><linearGradient id="Безымянный_градиент_34-4" x1="64.21" y1="181.4" x2="189.14" y2="212.18" xlink:href="#Безымянный_градиент_34"/><linearGradient id="Безымянный_градиент_34-5" x1="171.14" y1="164.01" x2="189.72" y2="168.59" xlink:href="#Безымянный_градиент_34"/><linearGradient id="Безымянный_градиент_34-6" x1="69.91" y1="99.26" x2="213.88" y2="134.74" xlink:href="#Безымянный_градиент_34"/><linearGradient id="Безымянный_градиент_34-7" x1="157.75" y1="188.11" x2="161.5" y2="189.03" xlink:href="#Безымянный_градиент_34"/></defs><title>лого коробочка</title><path class="cls-1" d="M142.86,242.29a219.19,219.19,0,0,1,25.85-1.87c5.76,0,13.73,1.12,20.64,2.17,7.81,1.17,14.34-5.47,14.34-10.14s1.35-18.79,1.16-31A1.94,1.94,0,0,0,201,201c-7.74,27.66-38.69,35.42-58.22,41.1Z" transform="translate(-73.62 -46.44)"/><path class="cls-2" d="M106.29,194.73c2.6,0,5.45-12.27,6.5-23.88a.49.49,0,0,0-.87-.34C102.83,182.59,103.69,194.73,106.29,194.73Z" transform="translate(-73.62 -46.44)"/><path class="cls-3" d="M133,195c3.74.62,5.17-11.34,5.3-21.33a.48.48,0,0,0-.91-.22C130.81,185.86,129.15,194.4,133,195Z" transform="translate(-73.62 -46.44)"/><path class="cls-4" d="M90.56,135.26c-4.2-.68-9.81-1.18-15.33,1.43,0,0-.15,30.89,0,45.55.19,18.49,0,36.2.7,50.6.14,2.87,2,5.31,4.88,5.12,68.76-4.53,102.59-11.46,111.66-39.29a.4.4,0,0,0-.67-.41c-6.37,6.47-25.52,2.18-26-16.17a.47.47,0,0,0-.94,0c-2.22,12.68-4,17.88-8.28,17.88-5.2,0-4.6-14.37,6.06-26.86.1-.12-1.78-12.53-10.37-12.53-7.16,0-10,3.74-10.55,4.51a.45.45,0,0,0-.07.3c2,23.81-2,34.4-10.65,34.4-3.37,0-9.92-8.56,5.72-34.13a.9.9,0,0,0,0-1,11.27,11.27,0,0,0-9-4.11c-5.46,0-9.3,1.16-10.9,2.32a.89.89,0,0,0-.37.78c1.25,21.16-4,36.29-10.95,36.29s-10.83-21.35,6.93-37.26C112.48,162.57,107,137.92,90.56,135.26Z" transform="translate(-73.62 -46.44)"/><path class="cls-5" d="M190.34,163.54c3.11-.3-4.53-4.79-9.53-3.47-7.31,2-10.6,7.74-11.27,10.4S172.14,165.27,190.34,163.54Z" transform="translate(-73.62 -46.44)"/><path class="cls-6" d="M198.39,69.16c-34.35,0-39.85,35-43.28,29.54-2.55-4.08-4.81-10.3-10.91-24.59-3.55-9-7.4-27.64-20-27.62C108,45.61,82.28,58.17,77.47,69.16c-6.25,14.29,26.07,32.69,40,39.7a1.79,1.79,0,0,1-.71,3.38c-7.16.39-18.71.92-28.25,1.34A15.52,15.52,0,0,0,73.75,131,16.17,16.17,0,0,1,82,128c22.74-1.63,29.44,18.86,30.71,21.87a74.07,74.07,0,0,1,2.8,9.16.46.46,0,0,0,.75.27c1.78-1.44,7-4.89,12.69-4.1s9.71,5.43,10.92,7.3a.48.48,0,0,0,.8,0c1.32-2.08,5.51-7.87,13.53-7.3,7.59.54,10.59,8.34,11.58,13.57a.48.48,0,0,0,.93,0c1.2-4.76,4.91-13,15.88-13.6,6.85-.34,12.6,6.42,12,9.19-.87,4.33-18.52.17-25.11,10.68l-.06.14c-2,6.65-1.36,17.21,10.65,17.21,7.67,0,23.54-16,24.71-21.09,4.54-19.62,1.7-39.23-1.17-51.09-2.12-4.78-10.28-4.64-21.59-6.66a189.35,189.35,0,0,0-30.68-2.6c-3.09,0-16.92.07-16.92.07-9.62-3.43-33.3-19.92-31.24-31.6,2.53-14.35,35,26.86,51.16,28.17,14.36,1.16,13.94-13.86,22-24,5.09-6.46,11.72-8.66,17.94-1.79,13.05,14.43,5.12,19.64-19.32,23.77,0,0,37.44-1.55,42.25-9.8C221.44,88.64,215.63,69.16,198.39,69.16Z" transform="translate(-73.62 -46.44)"/><path class="cls-7" d="M161.53,181.66c-3.8,3.58-5.92,13.18-4.12,13.94,3.28,1.38,4.78-9.59,4.92-13.56A.48.48,0,0,0,161.53,181.66Z" transform="translate(-73.62 -46.44)"/></svg>