<svg id="Слой_1" data-name="Слой 1" xmlns="http://www.w3.org/2000/svg" viewBox="0 0 708.28 609.31"><defs><style>.cls-1{fill:#ffc200;}</style></defs><title>желтый свг справа</title><circle class="cls-1" cx="402.92" cy="574.73" r="19.41"/><circle class="cls-1" cx="371.52" cy="298.2" r="19.41"/><circle class="cls-1" cx="321.1" cy="72.3" r="41.75"/><circle class="cls-1" cx="233.75" cy="370.25" r="41.75"/><circle class="cls-1" cx="41.75" cy="351.25" r="41.75"/><circle class="cls-1" cx="173.38" cy="501.87" r="41.75"/><circle class="cls-1" cx="160.05" cy="209.57" r="41.75"/><circle class="cls-1" cx="552.88" cy="41.75" r="41.75"/><circle class="cls-1" cx="391.25" cy="383.62" r="19.41"/><circle class="cls-1" cx="499.89" cy="404.15" r="19.41"/><circle class="cls-1" cx="598.24" cy="322.69" r="19.41"/><circle class="cls-1" cx="490.1" cy="303.27" r="19.41"/><circle class="cls-1" cx="455.66" cy="472.17" r="19.41"/><circle class="cls-1" cx="480.5" cy="183.2" r="19.41"/><circle class="cls-1" cx="403.07" cy="232.42" r="19.41"/><circle class="cls-1" cx="325.76" cy="510.85" r="19.41"/><circle class="cls-1" cx="593.12" cy="156.64" r="19.41"/><circle class="cls-1" cx="536.03" cy="234.07" r="19.41"/><circle class="cls-1" cx="674.9" cy="249.4" r="19.41"/><circle class="cls-1" cx="598.03" cy="472.38" r="9.58"/><circle class="cls-1" cx="523.09" cy="491.83" r="9.58"/><circle class="cls-1" cx="610.37" cy="425.56" r="9.58"/><circle class="cls-1" cx="576.24" cy="384.88" r="9.58"/><circle class="cls-1" cx="655.64" cy="442.62" r="9.58"/><circle class="cls-1" cx="694.36" cy="428.18" r="9.58"/><circle class="cls-1" cx="470.6" cy="552.2" r="9.58"/><circle class="cls-1" cx="630.64" cy="525.03" r="9.58"/><circle class="cls-1" cx="658.86" cy="555.21" r="9.58"/><circle class="cls-1" cx="665.42" cy="511.25" r="9.58"/><circle class="cls-1" cx="576.18" cy="517.72" r="9.58"/><circle class="cls-1" cx="684.65" cy="319.61" r="9.58"/><circle class="cls-1" cx="627.18" cy="373.76" r="9.58"/><circle class="cls-1" cx="698.7" cy="373.76" r="9.58"/><circle class="cls-1" cx="446.73" cy="392.13" r="9.58"/><circle class="cls-1" cx="320.74" cy="403.94" r="9.58"/><circle class="cls-1" cx="390.95" cy="472.18" r="9.58"/><circle class="cls-1" cx="422.45" cy="293.7" r="9.58"/><circle class="cls-1" cx="474.94" cy="249.08" r="9.58"/><circle class="cls-1" cx="541.22" cy="329.14" r="9.58"/><circle class="cls-1" cx="589.77" cy="249.08" r="9.58"/><circle class="cls-1" cx="545.81" cy="185.43" r="9.58"/><circle class="cls-1" cx="516.94" cy="138.84" r="9.58"/><circle class="cls-1" cx="325.99" cy="241.87" r="9.58"/><circle class="cls-1" cx="224.99" cy="268.87" r="9.58"/><circle class="cls-1" cx="298.99" cy="138.87" r="9.58"/><circle class="cls-1" cx="308.27" cy="306.83" r="9.58"/><circle class="cls-1" cx="146.27" cy="392.83" r="9.58"/><circle class="cls-1" cx="422.45" cy="166.4" r="9.58"/><circle class="cls-1" cx="553.08" cy="442.59" r="9.58"/><circle class="cls-1" cx="580.97" cy="555.48" r="5.9"/><circle class="cls-1" cx="529.13" cy="552.2" r="5.9"/><circle class="cls-1" cx="668.53" cy="580.41" r="5.9"/><circle class="cls-1" cx="687.35" cy="606.24" r="3.07"/><circle class="cls-1" cx="684.35" cy="564.24" r="3.07"/><circle class="cls-1" cx="675.35" cy="176.24" r="3.07"/><circle class="cls-1" cx="610.35" cy="546.24" r="3.07"/><circle class="cls-1" cx="668.35" cy="404.24" r="3.07"/><circle class="cls-1" cx="540.35" cy="524.24" r="3.07"/><circle class="cls-1" cx="464.35" cy="345.24" r="3.07"/><circle class="cls-1" cx="427.35" cy="527.24" r="3.07"/><circle class="cls-1" cx="513.35" cy="452.24" r="3.07"/><circle class="cls-1" cx="529.35" cy="367.24" r="3.07"/><circle class="cls-1" cx="422.35" cy="429.24" r="3.07"/><circle class="cls-1" cx="610.35" cy="497.24" r="3.07"/><circle class="cls-1" cx="655.35" cy="348.24" r="3.07"/><circle class="cls-1" cx="581.35" cy="435.24" r="3.07"/><circle class="cls-1" cx="627.08" cy="567.98" r="5.9"/><circle class="cls-1" cx="680.85" cy="536.83" r="5.9"/><circle class="cls-1" cx="694.61" cy="501.37" r="5.9"/><circle class="cls-1" cx="694.61" cy="468.56" r="5.9"/><ellipse class="cls-1" cx="640.14" cy="491.53" rx="5.85" ry="6.06"/></svg>