<svg id="Слой_1" data-name="Слой 1" xmlns="http://www.w3.org/2000/svg" viewBox="0 0 708.28 609.31"><defs><style>.cls-1{fill:#ffc200;}</style></defs><title>желтый свг</title><circle class="cls-1" cx="305.36" cy="574.73" r="19.41"/><circle class="cls-1" cx="336.76" cy="298.2" r="19.41"/><circle class="cls-1" cx="387.18" cy="72.3" r="41.75"/><circle class="cls-1" cx="474.53" cy="370.25" r="41.75"/><circle class="cls-1" cx="666.53" cy="351.25" r="41.75"/><circle class="cls-1" cx="534.9" cy="501.87" r="41.75"/><circle class="cls-1" cx="548.23" cy="209.57" r="41.75"/><circle class="cls-1" cx="155.4" cy="41.75" r="41.75"/><circle class="cls-1" cx="317.03" cy="383.62" r="19.41"/><circle class="cls-1" cx="208.39" cy="404.15" r="19.41"/><circle class="cls-1" cx="110.04" cy="322.69" r="19.41"/><circle class="cls-1" cx="218.18" cy="303.27" r="19.41"/><circle class="cls-1" cx="252.62" cy="472.17" r="19.41"/><circle class="cls-1" cx="227.78" cy="183.2" r="19.41"/><circle class="cls-1" cx="305.21" cy="232.42" r="19.41"/><circle class="cls-1" cx="382.52" cy="510.85" r="19.41"/><circle class="cls-1" cx="115.16" cy="156.64" r="19.41"/><circle class="cls-1" cx="172.25" cy="234.07" r="19.41"/><circle class="cls-1" cx="33.38" cy="249.4" r="19.41"/><circle class="cls-1" cx="110.25" cy="472.38" r="9.58"/><circle class="cls-1" cx="185.19" cy="491.83" r="9.58"/><circle class="cls-1" cx="97.91" cy="425.56" r="9.58"/><circle class="cls-1" cx="132.04" cy="384.88" r="9.58"/><circle class="cls-1" cx="52.64" cy="442.62" r="9.58"/><circle class="cls-1" cx="13.92" cy="428.18" r="9.58"/><circle class="cls-1" cx="237.68" cy="552.2" r="9.58"/><circle class="cls-1" cx="77.64" cy="525.03" r="9.58"/><circle class="cls-1" cx="49.42" cy="555.21" r="9.58"/><circle class="cls-1" cx="42.86" cy="511.25" r="9.58"/><circle class="cls-1" cx="132.1" cy="517.72" r="9.58"/><circle class="cls-1" cx="23.62" cy="319.61" r="9.58"/><circle class="cls-1" cx="81.1" cy="373.76" r="9.58"/><circle class="cls-1" cx="9.58" cy="373.76" r="9.58"/><circle class="cls-1" cx="261.55" cy="392.13" r="9.58"/><circle class="cls-1" cx="387.54" cy="403.94" r="9.58"/><circle class="cls-1" cx="317.33" cy="472.18" r="9.58"/><circle class="cls-1" cx="285.83" cy="293.7" r="9.58"/><circle class="cls-1" cx="233.34" cy="249.08" r="9.58"/><circle class="cls-1" cx="167.06" cy="329.14" r="9.58"/><circle class="cls-1" cx="118.51" cy="249.08" r="9.58"/><circle class="cls-1" cx="162.47" cy="185.43" r="9.58"/><circle class="cls-1" cx="191.34" cy="138.84" r="9.58"/><circle class="cls-1" cx="382.29" cy="241.87" r="9.58"/><circle class="cls-1" cx="483.29" cy="268.87" r="9.58"/><circle class="cls-1" cx="409.29" cy="138.87" r="9.58"/><circle class="cls-1" cx="400.01" cy="306.83" r="9.58"/><circle class="cls-1" cx="562.01" cy="392.83" r="9.58"/><circle class="cls-1" cx="285.83" cy="166.4" r="9.58"/><circle class="cls-1" cx="155.2" cy="442.59" r="9.58"/><circle class="cls-1" cx="127.31" cy="555.48" r="5.9"/><circle class="cls-1" cx="179.15" cy="552.2" r="5.9"/><circle class="cls-1" cx="39.75" cy="580.41" r="5.9"/><circle class="cls-1" cx="20.93" cy="606.24" r="3.07"/><circle class="cls-1" cx="23.93" cy="564.24" r="3.07"/><circle class="cls-1" cx="32.93" cy="176.24" r="3.07"/><circle class="cls-1" cx="97.93" cy="546.24" r="3.07"/><circle class="cls-1" cx="39.93" cy="404.24" r="3.07"/><circle class="cls-1" cx="167.93" cy="524.24" r="3.07"/><circle class="cls-1" cx="243.93" cy="345.24" r="3.07"/><circle class="cls-1" cx="280.93" cy="527.24" r="3.07"/><circle class="cls-1" cx="194.93" cy="452.24" r="3.07"/><circle class="cls-1" cx="178.93" cy="367.24" r="3.07"/><circle class="cls-1" cx="285.93" cy="429.24" r="3.07"/><circle class="cls-1" cx="97.93" cy="497.24" r="3.07"/><circle class="cls-1" cx="52.93" cy="348.24" r="3.07"/><circle class="cls-1" cx="126.93" cy="435.24" r="3.07"/><circle class="cls-1" cx="81.2" cy="567.98" r="5.9"/><circle class="cls-1" cx="27.43" cy="536.83" r="5.9"/><circle class="cls-1" cx="13.67" cy="501.37" r="5.9"/><circle class="cls-1" cx="13.67" cy="468.56" r="5.9"/><ellipse class="cls-1" cx="68.14" cy="491.53" rx="5.85" ry="6.06"/></svg>