<svg id="Слой_1" data-name="Слой 1" xmlns="http://www.w3.org/2000/svg" viewBox="0 0 4724 2084.37"><defs><style>.cls-1,.cls-2{fill:#fff;}.cls-1{fill-rule:evenodd;}.cls-2{isolation:isolate;font-size:438.01px;font-family:PalatinoLinotype-Roman, Palatino Linotype;}</style></defs><title>Белый горизонтальный логотип</title><path class="cls-1" d="M1510,1034.5c-3.81,3-9.19,11.42-11.73,15.54-87.81,158.81-141.54,984.1-141.54,984.1-27.26-3.65-250.42-60.71-502.75-64.51-95.41-1.43-352,54.52-439.82,28s-79.57-424-217.14-955.57c-15.54-46.6-58-184.17-67.21-205.09-3.8-8.56,635.1-43.75,827-50.56,252.8-8.88,525.89,76.39,525.89,76.39-.48-1.42-40.26-59.59-176.73-88.12C1128.15,740,985.5,741,964.58,741c-34.39,0-342.67,5.23-342.67,5.23-18.54-7.29-34.07-51.67-42.79-71.48-33.92-77.19-52-351.39,65.56-348s102.7,168.9,164.42,146.52c25.3-8,20.13-35,4.91-78.46-16.16-50.4-91-127.59-172-113.8s-173.68,82.83-75.92,433.17c-32.33-15.53-60.07-40.89-88.28-61-81.47-58.48-146.45-127.75-205.09-209-27.11-37.57-67.52-100-66.25-149.31s360.89-275.46,459.63-261S794.83,146,815.44,196.06c93.51,300.35-93.67,470.42,4,505s119.19-116.81,240.12-194.79c29.8-20.92,59-44.7,89.55-65,28.85-19.17,140-101.43,206.36-102.54,97.32-1.59,107,263.58,53.89,247.57-27.1-8.24-52.14-58.65-98.11-65.46-84.47-12.52-250.58,65.77-259.61,82.73s238.22-87.17,281.8-25.83c55.16,111.42-162.77,128.86-186.86,128.54,0,0-1.11,2.69,0,4,3.64,2.38,75,31.7,167,13.47C1422.32,691,1472.4,612.43,1498.24,550.62c11.09-26.63,2.38-63.4-5.23-85.75-19.5-57.54-59-126.48-103.82-158.34-11.57-8.08-33.6-7.29-49.29-2.53-36.29,10.77-69.1,26.62-100,42.79A2198.27,2198.27,0,0,0,994.54,497.36c-27.9,19.5-114.28,90.82-114.28,90.82H879c4.76-20,48.19-145.18,5.24-327.14C844.76,144.07,790.4,12.2,647.91,0L619.38,1.27c-11.73,2.85-26.63,4.44-39,9C483.71,46.12,406.84,94.46,328.54,147.88c-20.61,13.94-148.2,102.54-161,133.77-5.71,14-2.06,38,1.26,50.56,11.89,44.06,25.2,70.05,46.76,102.54,66.73,100.33,145.82,181.8,244.08,250.59,23.94,16.64,86.54,61,96,63.55-8.4,5.39-481,35.19-481.51,35.51C89.49,913.89,244.69,1314.57,300,1958.85c3.64,16.65,2.06,103.19,63.56,98.75,17.59-4.28,277.36-56.27,476.75-55.48s558.07,98,568.37,80c8.56-20.44,13.31-197,16.8-229.82.48-8.24,33.28-482.77,113-803.57C1536,1039.58,1514.25,1031,1510,1034.5Z"/><path class="cls-1" d="M1373.5,1282.71s-102.32,237.71-213,232.58-140.11-135-134.4-182.66c1.9-5.54,23.62-20.44,27.58-23.14,34.71-24.56,82.57-49.92,106.51-57.69s45.17-12.2,78.61-8.72c.79-1.1,1.59-8.55-15.69-23.14-21.71-16.32-62.45-35.5-84.79-36.29-21.4-.64-28.06,3.17-39.47,7.29-28.37,10.3-48,28.85-63.4,52.14-3.8,5.71-5.86,11.57-9.35,17.6-5.86,9.51-17,31.54-17,45.8h-.63c-2.86-14.74-3.17-28.68-7.45-41.52-9.51-28.37-29-50.25-52.78-64.67-7.61-4.6-17.28-7.92-26.31-10.62-47.71-14.58-96.53,14.27-123,33.92-5.38,4-33.75,29.64-38.35,36.45a123.76,123.76,0,0,0-10-20.13c-6.81-11.09-17-26.31-26.94-33.91-13.79-10.46-27.1-17.6-47.07-22.67-20.29-3.49-42.16,1.11-49.61,3.17-16,4.6-61.34,21.56-65.94,27.1-1.11-10.61-17.75-81.62-28-106.19a425,425,0,0,0-42-77.19c-5.23-7.6-12.05-14.58-17.6-22-36.61-49.13-90.34-86.54-177.67-84.79-7,.79-14.11,1.74-21.24,2.53-12.68,3.17-26.63,5.71-38.35,10.62-29.48,12.37-54,28.22-77.83,45.81-3.32,2.38-6.18,6.34-9.35,8.87a175.73,175.73,0,0,0-33.28,32.66c-4.28,5.7-10.78,10-15.06,15.69-3.17,4.28-6,8.71-9.35,12.52-22,24.88-43.11,53.41-59.59,83.37C23.12,1151,14.4,1167,7.27,1183.17c-2.54,5.71-9.83,32.81-6.34,36.46,7.45-.48,4.75,0,11.25-17,9.35-20.13,19.5-40.1,28.53-54.68,16.17-26.79,27.42-38.83,44.22-62.13,6.5-9,14.42-17.28,21.24-26.31,5.86-7.77,14-14.11,20.76-21.24,7-7.45,14.27-14,22-20.76,1.9-1.59,3.17-4.28,5.07-5.71C178,993.77,201,974.75,230.59,962.23c12.84-5.39,27.26-7.77,41.52-11.25,4.76-.32,9.51-.8,14.43-1.27,31.22-7.13,68.63,6.18,89.07,15.06,67.05,29.32,113.8,103,138,175.61,6.82,20.29,8.4,42.79,13.79,64.67,1.27,10.93,2.54,21.71,3.81,32.65-33.76,26.15-63.56,64.35-69.58,72.75-29,40.25-55.64,84.16-72.75,136.14-12.84,38.84-11.89,105.09,22.66,117.92,61.81,24.41,164.36-102.23,149.94-326.34,11.73-11.57,78.45-42.79,115.54-34.71a84.92,84.92,0,0,1,28.21,13.79c11.57,8.56,23.46,25.36,31.39,39.15,6.49,12.68,6.18,16,7,22.35A159.83,159.83,0,0,0,733,1292.54c-8.4,12-16.64,24.4-24.41,36.93-23.45,38-40.26,82.57-54.68,129.33-7.45,24.09-12.49,76.11,10.49,84,7.93,2.69,28.46,5.25,56.19-33.13,23.35-34.74,34.44-69.93,47-113.68,9-60.86,8.09-85.74,3.17-114.91,1.9-11.57,20.61-30.11,40.42-43.74,14.9-10.94,29.64-26.15,90-28.05C1004.37,1219.31,986,1342,986,1342c-.79,1.9-8.72,8.71-10.62,10.62a248.38,248.38,0,0,0-20.13,22.66c-45,64.67-57.69,96.37-60.23,102.23-5.38,12.84-20,48.5-7,61.5,51.83,26.31,114.75-159.92,114.91-166.42,17,79.09,44,162.68,156.4,174.09S1373.5,1282.71,1373.5,1282.71Zm-278.79-71.32a115.84,115.84,0,0,1,20.13-8.09c29-6.18,78.61,5.39,101.75,26.31v.64c-59.91.15-103.65,19.65-141.22,42.63-11.57,7.13-40.89,25.52-43.27,28.85h-.63C1039.39,1263.85,1064.44,1227.08,1094.71,1211.39Zm-573,181.95c-9,30.11-21.08,65.46-32.34,92.4-2.85,7-37.58,51.41-64,40.46s-30.1-43.63-22.18-67.56c18.54-56.43,47.55-102.71,79.72-145.66,3.17-4.28,24.1-34.87,51.52-51.51C546.47,1320.27,524.28,1379.39,521.75,1393.34Zm227.75-27.58c-7.76,49.77-18.84,81.65-38.33,119.53-11.72,20.93-28.36,22.52-34,19s-11.82-17.08-7.34-38.7c4.44-13.63,8.24-27.26,13.79-40.1,5.39-12.2,12.2-25,17.59-36.93,5.39-12.2,10.15-24.09,17-35.18,6.5-10.62,12.52-21.72,19.5-32a166.05,166.05,0,0,1,11.57-15.21C751.56,1309.34,754.58,1331.21,749.5,1365.76Zm167.56,126.73c-17.76-7.45,32.47-96.3,71.93-122.77C990.58,1392.39,950.5,1506.59,917.06,1492.49Z"/><text class="cls-2" transform="translate(1728.97 1268.99)">MILLENNIUM</text><text class="cls-2" transform="translate(1728.97 1909.72)">EVENT</text></svg>