<svg id="Слой_1" data-name="Слой 1" xmlns="http://www.w3.org/2000/svg" xmlns:xlink="http://www.w3.org/1999/xlink" viewBox="0 0 208.94 183.95"><defs><style>.cls-1{fill:url(#Безымянный_градиент_31);}.cls-2{fill:url(#Безымянный_градиент_31-2);}.cls-3{fill:#fff;opacity:0.46;}.cls-4{fill:url(#Безымянный_градиент_13);}.cls-5{fill:url(#Безымянный_градиент_13-2);}.cls-6{fill:none;}.cls-7{fill:url(#Безымянный_градиент_78);}.cls-8{fill:url(#Безымянный_градиент_78-2);}.cls-9{fill:url(#Безымянный_градиент_78-3);}.cls-10{fill:url(#Безымянный_градиент_78-4);}.cls-11{fill:url(#Безымянный_градиент_78-5);}.cls-12{fill:url(#Безымянный_градиент_78-6);}.cls-13{fill:url(#Безымянный_градиент_78-7);}.cls-14{fill:url(#Безымянный_градиент_78-8);}.cls-15{fill:url(#Безымянный_градиент_78-9);}.cls-16{fill:url(#Безымянный_градиент_78-10);}.cls-17{fill:url(#Безымянный_градиент_78-11);}.cls-18{fill:url(#Безымянный_градиент_78-12);}.cls-19{fill:url(#Безымянный_градиент_78-13);}.cls-20{fill:url(#Безымянный_градиент_78-14);}.cls-21{fill:url(#Безымянный_градиент_78-15);}.cls-22{fill:url(#Безымянный_градиент_78-16);}.cls-23{fill:url(#Безымянный_градиент_78-17);}.cls-24{fill:url(#Безымянный_градиент_78-18);}.cls-25{fill:url(#Безымянный_градиент_78-19);}.cls-26{fill:url(#Безымянный_градиент_78-20);}.cls-27{fill:url(#Безымянный_градиент_78-21);}.cls-28{fill:url(#Безымянный_градиент_34);}.cls-29{fill:url(#Безымянный_градиент_34-2);}.cls-30{fill:url(#Безымянный_градиент_34-3);}.cls-31{fill:url(#Безымянный_градиент_34-4);}.cls-32{fill:url(#Безымянный_градиент_34-5);}.cls-33{fill:url(#Безымянный_градиент_34-6);}.cls-34{fill:url(#Безымянный_градиент_34-7);}.cls-35{fill:url(#Безымянный_градиент_34-8);}.cls-36{fill:url(#Безымянный_градиент_34-9);}.cls-37{fill:url(#Безымянный_градиент_34-10);}.cls-38{fill:url(#Безымянный_градиент_34-11);}.cls-39{fill:url(#Безымянный_градиент_34-12);}.cls-40{fill:url(#Безымянный_градиент_34-13);}</style><linearGradient id="Безымянный_градиент_31" x1="412.44" y1="120.77" x2="427.57" y2="120.77" gradientUnits="userSpaceOnUse"><stop offset="0" stop-color="#bd0018"/><stop offset="1" stop-color="#dec91d"/></linearGradient><linearGradient id="Безымянный_градиент_31-2" x1="413.81" y1="75.02" x2="456.14" y2="75.02" xlink:href="#Безымянный_градиент_31"/><linearGradient id="Безымянный_градиент_13" x1="415.41" y1="217.31" x2="477.29" y2="217.31" gradientUnits="userSpaceOnUse"><stop offset="0" stop-color="#7a0090"/><stop offset="1" stop-color="#561af4"/></linearGradient><linearGradient id="Безымянный_градиент_13-2" x1="408.66" y1="199.31" x2="483.79" y2="199.31" xlink:href="#Безымянный_градиент_13"/><linearGradient id="Безымянный_градиент_78" x1="340.29" y1="137.91" x2="360.46" y2="137.91" gradientTransform="translate(-9.32 13.64) rotate(-2.05)" gradientUnits="userSpaceOnUse"><stop offset="0" stop-color="#f60090"/><stop offset="1" stop-color="#d81027"/></linearGradient><linearGradient id="Безымянный_градиент_78-2" x1="344.36" y1="137.51" x2="356.5" y2="137.51" xlink:href="#Безымянный_градиент_78"/><linearGradient id="Безымянный_градиент_78-3" x1="347.75" y1="137.55" x2="353.18" y2="137.55" xlink:href="#Безымянный_градиент_78"/><linearGradient id="Безымянный_градиент_78-4" x1="358.6" y1="107.52" x2="378.76" y2="107.52" xlink:href="#Безымянный_градиент_78"/><linearGradient id="Безымянный_градиент_78-5" x1="362.67" y1="107.12" x2="374.8" y2="107.12" xlink:href="#Безымянный_градиент_78"/><linearGradient id="Безымянный_градиент_78-6" x1="366.06" y1="107.16" x2="371.49" y2="107.16" xlink:href="#Безымянный_градиент_78"/><linearGradient id="Безымянный_градиент_78-7" x1="386.46" y1="113.09" x2="406.63" y2="113.09" xlink:href="#Безымянный_градиент_78"/><linearGradient id="Безымянный_градиент_78-8" x1="390.53" y1="112.7" x2="402.66" y2="112.7" xlink:href="#Безымянный_градиент_78"/><linearGradient id="Безымянный_градиент_78-9" x1="393.92" y1="112.73" x2="399.35" y2="112.73" xlink:href="#Безымянный_градиент_78"/><linearGradient id="Безымянный_градиент_78-10" x1="345.26" y1="113.35" x2="350.28" y2="113.35" gradientTransform="translate(-345 -27.36) rotate(-2.05)" xlink:href="#Безымянный_градиент_78"/><linearGradient id="Безымянный_градиент_78-11" x1="382.68" y1="102.6" x2="387.69" y2="102.6" gradientTransform="translate(-345 -27.36) rotate(-2.05)" xlink:href="#Безымянный_градиент_78"/><linearGradient id="Безымянный_градиент_78-12" x1="379.09" y1="117.33" x2="384.11" y2="117.33" gradientTransform="translate(-345 -27.36) rotate(-2.05)" xlink:href="#Безымянный_градиент_78"/><linearGradient id="Безымянный_градиент_78-13" x1="391.43" y1="131.32" x2="401.99" y2="131.32" gradientTransform="translate(-345 -27.36) rotate(-2.05)" xlink:href="#Безымянный_градиент_78"/><linearGradient id="Безымянный_градиент_78-14" x1="356.4" y1="122.94" x2="366.97" y2="122.94" gradientTransform="translate(-345 -27.36) rotate(-2.05)" xlink:href="#Безымянный_градиент_78"/><linearGradient id="Безымянный_градиент_78-15" x1="364.57" y1="134.66" x2="380.88" y2="134.66" xlink:href="#Безымянный_градиент_78"/><linearGradient id="Безымянный_градиент_78-16" x1="367.86" y1="134.34" x2="377.68" y2="134.34" xlink:href="#Безымянный_градиент_78"/><linearGradient id="Безымянный_градиент_78-17" x1="370.6" y1="134.37" x2="375" y2="134.37" xlink:href="#Безымянный_градиент_78"/><linearGradient id="Безымянный_градиент_78-18" x1="358.95" y1="179.35" x2="413.46" y2="179.35" xlink:href="#Безымянный_градиент_78"/><linearGradient id="Безымянный_градиент_78-19" x1="363.48" y1="148.94" x2="397.88" y2="148.94" xlink:href="#Безымянный_градиент_78"/><linearGradient id="Безымянный_градиент_78-20" x1="395.87" y1="141.39" x2="411.05" y2="141.39" xlink:href="#Безымянный_градиент_78"/><linearGradient id="Безымянный_градиент_78-21" x1="353.6" y1="157.71" x2="366.62" y2="157.71" xlink:href="#Безымянный_градиент_78"/><linearGradient id="Безымянный_градиент_34" x1="464" y1="317.85" x2="488.78" y2="317.85" gradientTransform="translate(73.67 -193.3) rotate(8.15)" gradientUnits="userSpaceOnUse"><stop offset="0" stop-color="#7a0090"/><stop offset="1" stop-color="#de1a6a"/></linearGradient><linearGradient id="Безымянный_градиент_34-2" x1="472.34" y1="248.15" x2="475.4" y2="248.15" gradientTransform="translate(-262.01 -234.3) rotate(8.15)" xlink:href="#Безымянный_градиент_34"/><linearGradient id="Безымянный_градиент_34-3" x1="457.92" y1="366.87" x2="486.29" y2="366.87" gradientTransform="translate(0.13 -168.01) rotate(-5.69)" xlink:href="#Безымянный_градиент_34"/><linearGradient id="Безымянный_градиент_34-4" x1="439.2" y1="125.55" x2="463.98" y2="125.55" gradientTransform="matrix(0.86, 0.51, -0.51, 0.86, 181.53, -132.45)" xlink:href="#Безымянный_градиент_34"/><linearGradient id="Безымянный_градиент_34-5" x1="447.54" y1="55.85" x2="450.6" y2="55.85" gradientTransform="matrix(0.86, 0.51, -0.51, 0.86, -154.15, -173.45)" xlink:href="#Безымянный_градиент_34"/><linearGradient id="Безымянный_градиент_34-6" x1="479.85" y1="174.22" x2="508.22" y2="174.22" gradientTransform="translate(103.91 -137.41) rotate(16.95)" xlink:href="#Безымянный_градиент_34"/><linearGradient id="Безымянный_градиент_34-7" x1="459.88" y1="165.33" x2="478.12" y2="169.83" gradientTransform="matrix(1, 0, 0, 1, 0, 0)" xlink:href="#Безымянный_градиент_34"/><linearGradient id="Безымянный_градиент_34-8" x1="445.51" y1="154.31" x2="447.25" y2="154.74" gradientTransform="matrix(1, 0, 0, 1, 0, 0)" xlink:href="#Безымянный_градиент_34"/><linearGradient id="Безымянный_градиент_34-9" x1="454.3" y1="154.89" x2="456.07" y2="155.32" gradientTransform="matrix(1, 0, 0, 1, 0, 0)" xlink:href="#Безымянный_градиент_34"/><linearGradient id="Безымянный_градиент_34-10" x1="431.76" y1="154.22" x2="472.97" y2="164.37" gradientTransform="matrix(1, 0, 0, 1, 0, 0)" xlink:href="#Безымянный_градиент_34"/><linearGradient id="Безымянный_градиент_34-11" x1="467.03" y1="148.48" x2="473.16" y2="149.99" gradientTransform="matrix(1, 0, 0, 1, 0, 0)" xlink:href="#Безымянный_градиент_34"/><linearGradient id="Безымянный_градиент_34-12" x1="433.64" y1="127.13" x2="480.19" y2="138.6" gradientTransform="matrix(1, 0, 0, 1, 0, 0)" xlink:href="#Безымянный_градиент_34"/><linearGradient id="Безымянный_градиент_34-13" x1="462.61" y1="156.43" x2="463.85" y2="156.73" gradientTransform="matrix(1, 0, 0, 1, 0, 0)" xlink:href="#Безымянный_градиент_34"/></defs><title>Все эл-ты вместе</title><path class="cls-1" d="M426.42,107.19a8.86,8.86,0,0,1-4.62,9.46c-2.94,1.46-6.19,1.3-8.27,4.2-3.6,5-.5,11,3.85,14.28.76.56,1.49-.71.74-1.27-3-2.27-5.51-5.93-4.46-9.87,1.18-4.43,5.13-4.31,8.58-5.94a10.35,10.35,0,0,0,5.59-11.25c-.17-.93-1.58-.54-1.41.39Z" transform="translate(-335.68 -41)"/><path class="cls-2" d="M441,41.28c-11.21-2.23-23,9.21-26.27,25.54-3.12,15.47,2.46,29.77,12.57,33.15a6.27,6.27,0,0,1-4,1.89c-3.34.5-2.23,3,.69,3.54,1.87.31.81,2.57,3.33,3.48s2.92-2.47,4.48-1.53c2.7,1.63,5.7.68,2.61-2.46-2.07-2.1-2.88-2.84-2.83-4.18,10.4.21,20.69-10.71,23.75-25.82C458.58,58.55,452.16,43.5,441,41.28Z" transform="translate(-335.68 -41)"/><ellipse class="cls-3" cx="112.16" cy="17.51" rx="4.39" ry="5.92"/><path class="cls-3" d="M447.05,66.16c-2.74-.18-4.82-3.13-4.87-6.74a6.82,6.82,0,0,0-.08.79c-.27,4,1.9,7.33,4.85,7.53s5.53-2.86,5.8-6.83c0-.26,0-.53,0-.79C452.24,63.7,449.79,66.34,447.05,66.16Z" transform="translate(-335.68 -41)"/><path class="cls-4" d="M472.78,221.86c-12.69,0-22.07-12.19-22.07-12.19l-9,.06s-9.06,12.13-21.76,12.13c-2.5,0-3.8-.81-4.28-2.1-.72,3,.13,5.19,4.28,5.19,12.7,0,21.76-12.12,21.76-12.12l9-.07S460.09,225,472.78,225c4.15,0,5-2.21,4.28-5.2C476.58,221.05,475.28,221.86,472.78,221.86Z" transform="translate(-335.68 -41)"/><path class="cls-5" d="M478.3,179c-15.4,0-27.53,14.9-27.53,14.9s-.76-2-4.55-2-4.54,2-4.54,2S429.55,179,414.14,179s6.57,25.76,6.57,25.76h.07c-4.35,6.13-9.11,14.9-.86,14.9,12.7,0,21.76-12.13,21.76-12.13l9-.06s9.38,12.19,22.07,12.19c8.31,0,3.42-8.89-.94-15C473.4,202.77,493.11,179,478.3,179ZM424.37,215.1c-6.33,0,.61-11.43.61-11.43s-16.86-19.76-5-19.76c11,0,19.86,10,21,11.28a.15.15,0,0,1,0,.07c-2.24-2.35-8.26-7.85-15.49-7.85-9.2,0,3.92,15.38,3.92,15.38h0c-2.6,3.66-5.44,8.89-.51,8.89,5.74,0,10.23-4.15,12.07-6.17l.06.33C440.55,206.47,433.76,215.1,424.37,215.1ZM446.2,204a4.64,4.64,0,1,1,4.64-4.63A4.63,4.63,0,0,1,446.2,204ZM468,215.1c-9.73,0-16.93-9.35-16.93-9.35H451a5.17,5.17,0,0,0,.07-.55c1.7,1.88,6.47,6.48,12.49,6.48,5,0,2.05-5.3-.56-9,.93-1.11,12.7-15.31,3.86-15.31-7.62,0-13.9,6.11-15.82,8.2a3.15,3.15,0,0,0,0-.44.64.64,0,0,1,.09.17s9.3-11.43,21.12-11.43c11.36,0-3.76,18.24-5,19.67C470.64,208.29,474.38,215.1,468,215.1Z" transform="translate(-335.68 -41)"/><circle class="cls-6" cx="347.01" cy="138.76" r="1.98" transform="translate(-360.02 55.71) rotate(-15.33)"/><path class="cls-6" d="M345.54,133.88a4.74,4.74,0,1,0,4.91,4.57A4.75,4.75,0,0,0,345.54,133.88Zm.4,7.39a2.72,2.72,0,1,1,2.62-2.81A2.72,2.72,0,0,1,345.94,141.27Z" transform="translate(-335.68 -41)"/><path class="cls-6" d="M345.32,131.22a7.87,7.87,0,1,0,8.15,7.59A7.86,7.86,0,0,0,345.32,131.22Zm.7,13.36a6.07,6.07,0,1,1,5.85-6.28A6.07,6.07,0,0,1,346,144.58Z" transform="translate(-335.68 -41)"/><path class="cls-7" d="M345.4,128.84a10.08,10.08,0,1,0,10.44,9.71A10.08,10.08,0,0,0,345.4,128.84Zm.48,18.12a7.87,7.87,0,1,1,7.59-8.15A7.86,7.86,0,0,1,345.88,147Z" transform="translate(-335.68 -41)"/><path class="cls-8" d="M345.59,132.45a6.07,6.07,0,1,0,6.28,5.85A6.07,6.07,0,0,0,345.59,132.45Zm.29,10.91a4.74,4.74,0,1,1,4.57-4.91A4.73,4.73,0,0,1,345.88,143.36Z" transform="translate(-335.68 -41)"/><path class="cls-9" d="M345.75,135.84a2.72,2.72,0,1,0,2.81,2.62A2.72,2.72,0,0,0,345.75,135.84Zm.13,4.88a2.12,2.12,0,1,1,2-2.19A2.12,2.12,0,0,1,345.88,140.72Z" transform="translate(-335.68 -41)"/><circle class="cls-6" cx="363.01" cy="107.58" r="2.12" transform="matrix(0.96, -0.26, 0.26, 0.96, -351.2, 58.83)"/><path class="cls-6" d="M362.75,102.86a4.74,4.74,0,1,0,4.9,4.57A4.73,4.73,0,0,0,362.75,102.86Zm.4,7.38a2.71,2.71,0,1,1,2.62-2.81A2.71,2.71,0,0,1,363.15,110.24Z" transform="translate(-335.68 -41)"/><path class="cls-6" d="M362.53,100.19a7.88,7.88,0,1,0,8.15,7.59A7.89,7.89,0,0,0,362.53,100.19Zm.7,13.37a6.07,6.07,0,1,1,5.85-6.28A6.07,6.07,0,0,1,363.23,113.56Z" transform="translate(-335.68 -41)"/><path class="cls-10" d="M362.61,97.81a10.09,10.09,0,1,0,10.44,9.72A10.1,10.1,0,0,0,362.61,97.81Zm.48,18.13a7.88,7.88,0,1,1,7.59-8.16A7.89,7.89,0,0,1,363.09,115.94Z" transform="translate(-335.68 -41)"/><path class="cls-11" d="M362.8,101.43a6.07,6.07,0,1,0,6.28,5.85A6.07,6.07,0,0,0,362.8,101.43Zm.29,10.91a4.74,4.74,0,1,1,4.56-4.91A4.74,4.74,0,0,1,363.09,112.34Z" transform="translate(-335.68 -41)"/><path class="cls-12" d="M363,104.82a2.71,2.71,0,1,0,2.81,2.61A2.72,2.72,0,0,0,363,104.82Zm.12,4.88a2.12,2.12,0,1,1,2.05-2.2A2.12,2.12,0,0,1,363.08,109.7Z" transform="translate(-335.68 -41)"/><circle class="cls-6" cx="391.05" cy="112.15" r="2.12" transform="translate(-351.42 66.41) rotate(-15.33)"/><path class="cls-6" d="M390.79,107.43A4.74,4.74,0,1,0,395.7,112,4.75,4.75,0,0,0,390.79,107.43Zm.4,7.38a2.71,2.71,0,1,1,2.62-2.81A2.71,2.71,0,0,1,391.19,114.81Z" transform="translate(-335.68 -41)"/><path class="cls-6" d="M390.57,104.76a7.88,7.88,0,1,0,8.16,7.59A7.88,7.88,0,0,0,390.57,104.76Zm.7,13.37a6.07,6.07,0,1,1,5.85-6.28A6.07,6.07,0,0,1,391.27,118.13Z" transform="translate(-335.68 -41)"/><path class="cls-13" d="M390.65,102.38a10.09,10.09,0,1,0,10.44,9.72A10.09,10.09,0,0,0,390.65,102.38Zm.48,18.13a7.88,7.88,0,1,1,7.6-8.16A7.86,7.86,0,0,1,391.13,120.51Z" transform="translate(-335.68 -41)"/><path class="cls-14" d="M390.84,106a6.07,6.07,0,1,0,6.28,5.85A6.07,6.07,0,0,0,390.84,106Zm.29,10.91A4.74,4.74,0,1,1,395.7,112,4.74,4.74,0,0,1,391.13,116.91Z" transform="translate(-335.68 -41)"/><path class="cls-15" d="M391,109.39a2.71,2.71,0,1,0,2.81,2.61A2.72,2.72,0,0,0,391,109.39Zm.13,4.88a2.12,2.12,0,1,1,2-2.2A2.13,2.13,0,0,1,391.13,114.27Z" transform="translate(-335.68 -41)"/><circle class="cls-16" cx="6.61" cy="73.47" r="2.51"/><circle class="cls-17" cx="43.61" cy="61.39" r="2.51"/><circle class="cls-18" cx="40.56" cy="76.23" r="2.51"/><circle class="cls-19" cx="56.16" cy="89.68" r="5.28"/><circle class="cls-20" cx="20.86" cy="82.55" r="5.28"/><circle class="cls-6" cx="368.02" cy="134.61" r="1.72" transform="translate(-358.18 61.12) rotate(-15.33)"/><path class="cls-6" d="M367.8,130.8a3.84,3.84,0,1,0,4,3.69A3.83,3.83,0,0,0,367.8,130.8Zm.33,6a2.2,2.2,0,1,1,2.12-2.27A2.19,2.19,0,0,1,368.13,136.77Z" transform="translate(-335.68 -41)"/><path class="cls-6" d="M367.63,128.64a6.37,6.37,0,1,0,6.6,6.14A6.38,6.38,0,0,0,367.63,128.64Zm.57,10.81a4.91,4.91,0,1,1,4.73-5.08A4.92,4.92,0,0,1,368.2,139.45Z" transform="translate(-335.68 -41)"/><path class="cls-21" d="M367.69,126.71a8.16,8.16,0,1,0,8.45,7.86A8.17,8.17,0,0,0,367.69,126.71Zm.39,14.67a6.37,6.37,0,1,1,6.15-6.6A6.37,6.37,0,0,1,368.08,141.38Z" transform="translate(-335.68 -41)"/><path class="cls-22" d="M367.84,129.64a4.91,4.91,0,1,0,5.09,4.73A4.91,4.91,0,0,0,367.84,129.64Zm.24,8.83a3.84,3.84,0,1,1,3.69-4A3.84,3.84,0,0,1,368.08,138.47Z" transform="translate(-335.68 -41)"/><path class="cls-23" d="M368,132.38a2.2,2.2,0,1,0,2.28,2.12A2.21,2.21,0,0,0,368,132.38Zm.11,4a1.72,1.72,0,1,1,1.65-1.78A1.73,1.73,0,0,1,368.08,136.33Z" transform="translate(-335.68 -41)"/><path class="cls-24" d="M410.38,201.09c-4.73-2-13.13-6.79-10.09-14.05,6.93-16.58,7.58-30.91,6.67-40.69a4.87,4.87,0,0,0-2.83.26L395.84,150A90.64,90.64,0,0,1,398,188.45a7.77,7.77,0,0,0,.61,4.61,7.78,7.78,0,0,1-2.83-7.44,91.44,91.44,0,0,0-1.26-35.05L381,156.12l-15.18,6.23a95.11,95.11,0,0,0,25.68,25.39,8.12,8.12,0,0,1,3.73,6.85,8.29,8.29,0,0,0-2.78-3,94.16,94.16,0,0,1-27.83-28.7l-6.8,2.79a4.82,4.82,0,0,0-2.39,2.09,85,85,0,0,0,33.19,24.12c7.26,3,4.62,12.32,2.68,17.09a1.28,1.28,0,0,0,1.67,1.66l1.53-.63a.75.75,0,0,1,.07-.23c1.22-3,2.72-7.81,1.84-11.71,2.31,2.84,2,7.09,1.05,10.73l4.23-1.74L406.7,205c-3.14-1.8-6.41-4.43-7.16-7.86,2.25,3,6.3,5.18,9.08,6.37a1.25,1.25,0,0,1,.56.47l1.19-.49A1.27,1.27,0,0,0,410.38,201.09Z" transform="translate(-335.68 -41)"/><path class="cls-25" d="M379.45,152.94l14.15-5.8a76.66,76.66,0,0,0-3.1-8.83l-14.59,6-16.59,6.81a81.08,81.08,0,0,0,4.5,8.26Z" transform="translate(-335.68 -41)"/><path class="cls-26" d="M394.8,146.65l7.83-3.22a4.82,4.82,0,0,1,4,.15c-.26-2-.59-3.8-.91-5.29a4.9,4.9,0,0,0-6.64-3.51L391.26,138c.09.15.19.3.27.46A72.11,72.11,0,0,1,394.8,146.65Z" transform="translate(-335.68 -41)"/><path class="cls-27" d="M356.27,162.46l6.5-2.67a79.35,79.35,0,0,1-4.08-8.43l-6,2.44a4.9,4.9,0,0,0-2.26,7.17c.82,1.29,1.83,2.77,3.06,4.39A4.82,4.82,0,0,1,356.27,162.46Z" transform="translate(-335.68 -41)"/><path class="cls-28" d="M510.17,202.94s-9.49.4-10-7.25L503,176a1,1,0,1,0-1.95-.28l-2.83,19.74c-2.63,7.2-11.62,4.15-11.62,4.15a.93.93,0,0,0,.18,1.79l10.38,1.48,1.95.28,10.37,1.49A.92.92,0,0,0,510.17,202.94Z" transform="translate(-335.68 -41)"/><circle class="cls-29" cx="171.87" cy="78.55" r="1.53"/><path class="cls-30" d="M516.88,129.07l-.72-.1a2.48,2.48,0,0,0-4.91-.71l-10-1.43a2,2,0,0,0-2.2,1.65l-5.3,37a6.85,6.85,0,0,0,5.8,7.75l6,.86a6.85,6.85,0,0,0,7.75-5.81l5.3-37A2,2,0,0,0,516.88,129.07Zm-16.33,12.55a2.49,2.49,0,1,1,2.11,2.81A2.49,2.49,0,0,1,500.55,141.62Zm8.79,11.91a2.49,2.49,0,1,1-2.82,2.1A2.48,2.48,0,0,1,509.34,153.53Zm-9.35-.36a1.53,1.53,0,1,1,1.3,1.73A1.53,1.53,0,0,1,500,153.17Zm-1.51,11.28a2.49,2.49,0,1,1,2.11,2.82A2.48,2.48,0,0,1,498.48,164.45Zm12.33,4.73a3,3,0,0,1-3.54,2.45l-6.5-1.17c10.86,2,13.38-21.77,14-19.61Zm-.49-26.89a1.53,1.53,0,1,1,1.3,1.73A1.54,1.54,0,0,1,510.32,142.29Zm6.09-9.72-.6,3.53c1-5.9-11.88-7.11-10.72-7.49l10,2.06A1.65,1.65,0,0,1,516.41,132.57Z" transform="translate(-335.68 -41)"/><path class="cls-31" d="M509,223.4s-8.91-3.28-6.42-10.53l10.21-17.13a1,1,0,0,0-.35-1.36,1,1,0,0,0-1.35.35l-10.21,17.12c-5.2,5.64-12.32-.63-12.32-.63a.93.93,0,0,0-.52,1.72l9,5.36,1.7,1,9,5.36A.92.92,0,0,0,509,223.4Z" transform="translate(-335.68 -41)"/><circle class="cls-32" cx="203.01" cy="104.43" r="1.53"/><path class="cls-33" d="M543.64,157.81l-.63-.37a2.48,2.48,0,0,0-4.26-2.54l-8.68-5.18a1.93,1.93,0,0,0-2.66.68l-19.16,32.13a6.86,6.86,0,0,0,2.38,9.39l5.2,3.09a6.83,6.83,0,0,0,9.38-2.37l19.12-32.08A2,2,0,0,0,543.64,157.81Zm-19.9,5.29a2.49,2.49,0,1,1,.87,3.41A2.49,2.49,0,0,1,523.74,163.1Zm3.52,14.38a2.48,2.48,0,1,1-3.41.86A2.49,2.49,0,0,1,527.26,177.48Zm-8.49-3.93a1.53,1.53,0,1,1,.53,2.1A1.53,1.53,0,0,1,518.77,173.55ZM513,183.38a2.49,2.49,0,1,1,.87,3.41A2.49,2.49,0,0,1,513,183.38Zm9.57,9.11a3.05,3.05,0,0,1-4.22.9l-5.54-3.59c9.24,6.06,20.72-14.94,20.5-12.69Zm9.9-25a1.53,1.53,0,1,1,.53,2.1A1.54,1.54,0,0,1,532.5,167.48Zm9.36-6.62-1.91,3c3.22-5-8.23-11.15-7-11l8.4,5.73A1.66,1.66,0,0,1,541.86,160.86Z" transform="translate(-335.68 -41)"/><path class="cls-34" d="M457.7,174.3a71.78,71.78,0,0,1,8.53-.62,52.37,52.37,0,0,1,6.81.72c2.57.39,4.72-1.8,4.72-3.35s.45-6.19.39-10.23a.64.64,0,0,0-1.26-.15c-2.55,9.12-12.76,11.68-19.2,13.56Z" transform="translate(-335.68 -41)"/><path class="cls-35" d="M445.64,158.61c.86,0,1.8-4,2.15-7.87a.16.16,0,0,0-.29-.11C444.5,154.61,444.79,158.61,445.64,158.61Z" transform="translate(-335.68 -41)"/><path class="cls-36" d="M454.44,158.71c1.23.21,1.71-3.73,1.75-7a.16.16,0,0,0-.3-.07C453.73,155.69,453.18,158.51,454.44,158.71Z" transform="translate(-335.68 -41)"/><path class="cls-37" d="M440.45,139a8.92,8.92,0,0,0-5.08.78.15.15,0,0,0-.07.15c2,10.86,1.36,22.83.33,31.25a1.52,1.52,0,0,0,1.61,1.69c22.68-1.49,33.83-3.78,36.82-13a.13.13,0,0,0-.22-.13c-2.1,2.13-8.41.72-8.58-5.34,0-.18-.28-.19-.31,0-.73,4.19-1.3,5.9-2.73,5.9-1.72,0-1.52-4.74,2-8.86,0,0-.59-4.13-3.42-4.13a4,4,0,0,0-3.48,1.49.14.14,0,0,0,0,.09c.65,7.86-.66,11.35-3.51,11.35-1.11,0-3.27-2.82,1.89-11.26a.31.31,0,0,0,0-.32,3.75,3.75,0,0,0-3-1.35,6.85,6.85,0,0,0-3.6.76.3.3,0,0,0-.12.26c.41,7-1.33,12-3.61,12s-3.57-7,2.28-12.29C447.68,148,445.86,139.88,440.45,139Z" transform="translate(-335.68 -41)"/><path class="cls-38" d="M473.36,148.33c1-.1-1.49-1.58-3.14-1.15a5.3,5.3,0,0,0-3.72,3.43C466.28,151.49,467.36,148.9,473.36,148.33Z" transform="translate(-335.68 -41)"/><path class="cls-39" d="M476,117.2c-11.33,0-13.14,11.56-14.28,9.74-.84-1.34-1.58-3.39-3.6-8.11-1.17-3-2.44-9.11-6.59-9.11-5.34-.29-13.83,3.86-15.41,7.48-2.06,4.71,8.6,10.78,13.17,13.1a.59.59,0,0,1-.23,1.11c-2.36.13-6.17.3-9.32.44a5.12,5.12,0,0,0-4.85,5.76,5.28,5.28,0,0,1,2.73-1c7.5-.53,9.71,6.22,10.13,7.22a22.9,22.9,0,0,1,.92,3,.16.16,0,0,0,.25.09,5.93,5.93,0,0,1,4.18-1.36,5.63,5.63,0,0,1,3.61,2.41.15.15,0,0,0,.26,0,4.84,4.84,0,0,1,4.46-2.41c2.5.18,3.5,2.75,3.82,4.48a.16.16,0,0,0,.31,0,5.51,5.51,0,0,1,5.23-4.49c2.27-.11,4.16,2.12,4,3-.29,1.43-6.11.06-8.28,3.53l0,0c-.65,2.19-.45,5.68,3.51,5.68,2.53,0,5.07-3.18,6.56-5.47a3.63,3.63,0,0,0,.58-1.49c.95-6.57-.34-12.94-1.28-16.85-.7-1.57-1.49-1.53-5.21-2.19a62.76,62.76,0,0,0-10.12-.86l-5.59,0c-3.17-1.13-11-6.57-10.3-10.42.84-4.73,11.56,8.86,16.88,9.29,4.73.38,4.59-4.57,7.25-7.93,1.68-2.13,3.86-2.85,5.91-.59,4.31,4.76,1.69,6.48-6.37,7.84,0,0,12.35-.51,13.94-3.23C483.62,123.63,481.7,117.2,476,117.2Z" transform="translate(-335.68 -41)"/><path class="cls-40" d="M463.86,154.3c-1.25,1.18-1.95,4.35-1.36,4.6,1.08.46,1.58-3.16,1.62-4.47A.16.16,0,0,0,463.86,154.3Z" transform="translate(-335.68 -41)"/></svg>